<?xml version="1.0" encoding="UTF-8"?>
<svg id="_레이어_1" data-name="레이어_1" xmlns="http://www.w3.org/2000/svg" version="1.1" xmlns:xlink="http://www.w3.org/1999/xlink" viewBox="0 0 103 54" width="103" height="54">
  <!-- Generator: Adobe Illustrator 29.1.0, SVG Export Plug-In . SVG Version: 2.1.0 Build 142)  -->
  <defs>
    <style>
      .st0 {
        fill: #dd6f6a;
      }

      .st1 {
        fill: url(#_무제_그라디언트_156);
      }

      .st2 {
        fill: #fff;
      }

      .st3 {
        fill: #4a75a0;
      }

      .st4 {
        fill: #88cbe9;
      }

      .st5 {
        fill: #e67764;
      }

      .st6 {
        fill: #7aafcd;
      }

      .st7 {
        fill: #994026;
      }

      .st8 {
        fill: #d45654;
      }

      .st9 {
        fill: #1e5578;
      }

      .st10 {
        opacity: .5;
      }
    </style>
    <linearGradient id="_무제_그라디언트_156" data-name="무제 그라디언트 156" x1="43.9" y1="19.4" x2="43.9" y2="41" gradientUnits="userSpaceOnUse">
      <stop offset="0" stop-color="#72c0da"/>
      <stop offset="1" stop-color="#4788b7"/>
    </linearGradient>
  </defs>
  <polygon class="st4" points="35.8 40 54.4 47.7 67.2 42.4 67.2 14 48.6 6.3 35.8 11.6 35.8 40"/>
  <polygon class="st3" points="67.2 42.4 67.2 14 54.4 19.3 54.4 47.7 67.2 42.4"/>
  <polygon class="st6" points="54.4 47.7 54.4 19.3 35.8 11.6 35.8 40 54.4 47.7"/>
  <path class="st1" d="M52,18.3s0,23.1-12.8,23.1l-3.4-1.4V11.6l16.2,6.7Z"/>
  <polygon class="st0" points="67.2 14 67.2 23.7 54.4 29 35.8 21.3 35.8 11.6 48.6 6.3 67.2 14"/>
  <path class="st8" d="M52,18.3l-16.2-6.7v9.7l15.1,6.3c1-4.9,1-9.3,1-9.3Z"/>
  <polygon class="st7" points="54.4 29 67.2 23.7 67.2 14 54.4 19.3 54.4 29"/>
  <polygon class="st5" points="67.2 14 54.4 19.3 35.8 11.6 48.6 6.3 67.2 14"/>
  <g class="st10">
    <rect class="st2" x="53.9" y="19.3" width=".9" height="28.4"/>
    <rect class="st2" x="53.9" y="16.2" width="13.8" height=".9" transform="translate(-1.8 24.6) rotate(-22.5)"/>
    <rect class="st2" x="44.7" y="5.4" width=".9" height="20.1" transform="translate(13.5 51.2) rotate(-67.5)"/>
  </g>
  <path class="st9" d="M54.4,48s0,0-.1,0l-18.6-7.7c-.1,0-.2-.2-.2-.3V11.6c0-.1,0-.3.2-.3l12.8-5.3c0,0,.2,0,.2,0l18.6,7.7c.1,0,.2.2.2.3v28.4c0,.1,0,.3-.2.3l-12.8,5.3s0,0-.1,0ZM36.2,39.8l18.2,7.6,12.4-5.2V14.2l-18.2-7.6-12.4,5.2v27.9Z"/>
  <g>
    <polygon class="st2" points="47.6 24.8 53.5 27.2 53.5 24.4 47.6 22 47.6 24.8"/>
    <polygon class="st2" points="36.8 20.3 42.7 22.7 42.7 19.9 36.8 17.5 36.8 20.3"/>
    <polygon class="st2" points="47.6 20.7 53.5 23.1 53.5 20.4 47.6 17.9 47.6 20.7"/>
    <polygon class="st2" points="36.8 16.2 42.7 18.7 42.7 15.9 36.8 13.4 36.8 16.2"/>
  </g>
  <g>
    <polygon class="st2" points="45.8 32.7 48.4 30.3 48.1 29.8 50 30.3 49.8 32.6 49.4 32 46.8 34.3 45.8 32.7"/>
    <polygon class="st2" points="45.8 32.7 45.8 27.9 46.3 28.1 45.1 25.7 43.9 27.1 44.4 27.3 44.4 32.1 45.8 32.7"/>
    <polygon class="st2" points="44.5 32.1 41.8 27.6 42.2 27.3 40.3 26.2 40.5 28.8 40.8 28.5 43.5 33 44.5 32.1"/>
    <polygon class="st2" points="45.8 36.9 48.4 41.4 48.1 41.7 50 42.8 49.8 40.2 49.4 40.5 46.8 36 45.8 36.9"/>
    <polygon class="st2" points="46.7 34.3 50.5 35.8 50.5 35.2 52 37.3 50.5 38.2 50.5 37.6 46.7 36.1 46.7 34.3"/>
    <polygon class="st2" points="44.5 36.3 41.8 38.6 42.2 39.2 40.3 38.7 40.5 36.4 40.8 37 43.5 34.6 44.5 36.3"/>
    <polygon class="st2" points="43.5 32.9 39.8 31.4 39.8 30.7 38.3 31.6 39.8 33.8 39.8 33.2 43.5 34.7 43.5 32.9"/>
    <polygon class="st2" points="45.8 36.9 45.8 41.7 46.3 41.9 45.1 43.3 43.9 40.9 44.4 41.1 44.4 36.3 45.8 36.9"/>
  </g>
  <g>
    <path class="st2" d="M47.6,22.7s0,0,0,0l-4.9-4.6s0,0,0-.1c0,0,0,0,.1,0l4.9,4.6s0,0,0,.1c0,0,0,0,0,0Z"/>
    <path class="st2" d="M42.7,20.7s0,0,0,0,0,0,0-.1l4.9-.5c0,0,0,0,.1,0,0,0,0,0,0,.1l-4.9.5s0,0,0,0Z"/>
    <path class="st2" d="M47.6,23.5s0,0,0,0l-4.9-2s0,0,0-.1c0,0,0,0,.1,0l4.9,2s0,0,0,.1c0,0,0,0,0,0Z"/>
    <path class="st2" d="M47.6,19.4s0,0,0,0l-4.9-2s0,0,0-.1c0,0,0,0,.1,0l4.9,2s0,0,0,.1c0,0,0,0,0,0Z"/>
  </g>
  <path class="st8" d="M45.1,31.1c-.4-.2-.8-.2-1.2-.1-.4,0-.7.3-1,.7-.2.3-.3.7-.4,1.1,0,.4,0,.8,0,1.2.1.8.4,1.6.8,2.2.2.4.5.7.8,1,.3.2.6.4.9.6.4.2.8.2,1.2.1.4,0,.7-.3,1-.7.2-.3.3-.7.4-1.1,0-.4,0-.8,0-1.2-.1-.8-.4-1.6-.8-2.2-.2-.4-.5-.7-.8-1-.3-.2-.6-.4-.9-.6Z"/>
</svg>