<?xml version="1.0" encoding="UTF-8"?>
<svg id="_레이어_1" data-name="레이어_1" xmlns="http://www.w3.org/2000/svg" version="1.1" xmlns:xlink="http://www.w3.org/1999/xlink" viewBox="0 0 103 54" width="103" height="54">
  <!-- Generator: Adobe Illustrator 29.1.0, SVG Export Plug-In . SVG Version: 2.1.0 Build 142)  -->
  <defs>
    <style>
      .st0 {
        fill: url(#_무제_그라디언트_156);
      }

      .st1, .st2 {
        fill: #fff;
      }

      .st3 {
        fill: #4a75a0;
      }

      .st2, .st4, .st5 {
        opacity: .5;
      }

      .st6 {
        fill: #88cbe9;
      }

      .st7 {
        fill: #6ab9db;
      }

      .st4 {
        fill: #578aa5;
      }

      .st8 {
        fill: url(#_무제_그라디언트_6);
      }

      .st9 {
        fill: #1e5578;
      }

      .st10 {
        fill: #5489b5;
      }
    </style>
    <linearGradient id="_무제_그라디언트_6" data-name="무제 그라디언트 6" x1="45.2" y1="24.1" x2="45.2" y2="45.4" gradientUnits="userSpaceOnUse">
      <stop offset="0" stop-color="#8ec3d4"/>
      <stop offset="1" stop-color="#6fa0c2"/>
    </linearGradient>
    <linearGradient id="_무제_그라디언트_156" data-name="무제 그라디언트 156" x1="43" y1="23.4" x2="43" y2="42.1" gradientUnits="userSpaceOnUse">
      <stop offset="0" stop-color="#72c0da"/>
      <stop offset="1" stop-color="#4788b7"/>
    </linearGradient>
  </defs>
  <polygon class="st6" points="46.5 6.3 70.4 16.3 70.4 18.8 68.5 19.6 68.5 42.5 55.9 47.7 34.5 38.8 34.5 15.4 32.6 14.6 32.6 12.1 46.5 6.3"/>
  <polygon class="st3" points="68.5 42.5 55.9 47.7 55.9 24.3 56.5 24.6 68.5 19.6 68.5 42.5"/>
  <path class="st8" d="M34.5,15.7c0-.1.1-.2.2-.2,7,2.9,14,5.8,21,8.7,0,0,.1,0,.1.2v23.3c-7.1-3-14.2-5.9-21.4-8.9V15.7Z"/>
  <path class="st0" d="M51.5,22.5s-3.1,15.7-14.7,17.3l-2.2-.9V15.4l17,7Z"/>
  <g>
    <path class="st9" d="M66.7,24.2c0,0,0,0,0,0v-3.7c0,0,0,0,0,0s0,0,0,0v3.7c0,0,0,0,0,0Z"/>
    <path class="st9" d="M57.9,27.8c0,0,0,0,0,0v-3.7c0,0,0,0,0,0s0,0,0,0v3.7c0,0,0,0,0,0Z"/>
    <path class="st9" d="M57.9,37c0,0,0,0,0,0v-4.6c0,0,0,0,0,0s0,0,0,0v4.6c0,0,0,0,0,0Z"/>
    <path class="st9" d="M66.7,43.3c0,0,0,0,0,0v-5.1c0,0,0,0,0,0s0,0,0,0v5.1c0,0,0,0,0,0Z"/>
    <path class="st9" d="M66.7,33.3c0,0,0,0,0,0v-4.6c0,0,0,0,0,0s0,0,0,0v4.6c0,0,0,0,0,0Z"/>
    <path class="st9" d="M62.4,40c0,0,0,0,0,0v-4.9c0,0,0,0,0,0s0,0,0,0v4.9c0,0,0,0,0,0Z"/>
    <path class="st9" d="M62.4,30.5c0,0,0,0,0,0v-4.6c0,0,0,0,0,0s0,0,0,0v4.6c0,0,0,0,0,0Z"/>
    <path class="st9" d="M57.9,47c0,0,0,0,0,0v-5.1c0,0,0,0,0,0s0,0,0,0v5.1c0,0,0,0,0,0Z"/>
    <path class="st9" d="M55.9,28.7s0,0,0,0c0,0,0-.1,0-.1l12.6-5.2s.1,0,.1,0c0,0,0,.1,0,.1l-12.6,5.2s0,0,0,0Z"/>
    <path class="st9" d="M55.9,33.2s0,0,0,0c0,0,0-.1,0-.1l12.6-5.2s.1,0,.1,0c0,0,0,.1,0,.1l-12.6,5.2s0,0,0,0Z"/>
    <path class="st9" d="M55.9,37.8s0,0,0,0c0,0,0-.1,0-.1l12.6-5.2s.1,0,.1,0,0,.1,0,.1l-12.6,5.2s0,0,0,0Z"/>
    <path class="st9" d="M55.9,42.7s0,0,0,0c0,0,0-.1,0-.1l12.6-5.2s.1,0,.1,0c0,0,0,.1,0,.1l-12.6,5.2s0,0,0,0Z"/>
  </g>
  <g class="st5">
    <path class="st1" d="M66.9,24.3c0,0,0,0,0,0v-4.1c0,0,0,0,0,0s0,0,0,0v4.1c0,0,0,0,0,0Z"/>
    <path class="st1" d="M58,28c0,0,0,0,0,0v-4.1c0,0,0,0,0,0s0,0,0,0v4.1c0,0,0,0,0,0Z"/>
    <path class="st1" d="M58,37.1c0,0,0,0,0,0v-4.6c0,0,0,0,0,0s0,0,0,0v4.6c0,0,0,0,0,0Z"/>
    <path class="st1" d="M66.9,43.4c0,0,0,0,0,0v-5.1c0,0,0,0,0,0s0,0,0,0v5.1c0,0,0,0,0,0Z"/>
    <path class="st1" d="M66.9,33.5c0,0,0,0,0,0v-4.6c0,0,0,0,0,0s0,0,0,0v4.6c0,0,0,0,0,0Z"/>
    <path class="st1" d="M62.6,40.1c0,0,0,0,0,0v-4.9c0,0,0,0,0,0s0,0,0,0v4.9c0,0,0,0,0,0Z"/>
    <path class="st1" d="M62.6,30.6c0,0,0,0,0,0v-4.6c0,0,0,0,0,0s0,0,0,0v4.6c0,0,0,0,0,0Z"/>
    <path class="st1" d="M58,47.1c0,0,0,0,0,0v-5.1c0,0,0,0,0,0s0,0,0,0v5.1c0,0,0,0,0,0Z"/>
    <path class="st1" d="M55.9,28.9s0,0,0,0c0,0,0-.1,0-.1l12.8-5.3s.1,0,.1,0c0,0,0,.1,0,.1l-12.8,5.3s0,0,0,0Z"/>
    <path class="st1" d="M55.9,33.4s0,0,0,0c0,0,0-.1,0-.1l12.8-5.3s.1,0,.1,0c0,0,0,.1,0,.1l-12.8,5.3s0,0,0,0Z"/>
    <path class="st1" d="M55.9,38s0,0,0,0c0,0,0-.1,0-.1l12.8-5.3s.1,0,.1,0c0,0,0,.1,0,.1l-12.8,5.3s0,0,0,0Z"/>
    <path class="st1" d="M55.9,42.9s0,0,0,0c0,0,0-.1,0-.1l12.8-5.3s.1,0,.1,0c0,0,0,.1,0,.1l-12.8,5.3s0,0,0,0Z"/>
  </g>
  <g>
    <path class="st9" d="M52.3,41.2c0,0,0,0,0,0v-4.9c0,0,0,0,0,0s0,0,0,0v4.9c0,0,0,0,0,0Z"/>
    <path class="st9" d="M38.2,21.3c0,0,0,0,0,0v-4.8c0,0,0,0,0,0s0,0,0,0v4.8c0,0,0,0,0,0Z"/>
    <path class="st9" d="M38.2,30.5c0,0,0,0,0,0v-4.6c0,0,0,0,0,0s0,0,0,0v4.6c0,0,0,0,0,0Z"/>
    <path class="st9" d="M38.2,40.4c0,0,0,0,0,0v-5c0,0,0,0,0,0s0,0,0,0v5c0,0,0,0,0,0Z"/>
    <path class="st9" d="M42.5,27.7c0,0,0,0,0,0v-4.6c0,0,0,0,0,0s0,0,0,0v4.6c0,0,0,0,0,0Z"/>
    <path class="st9" d="M42.5,37.1c0,0,0,0,0,0v-4.9c0,0,0,0,0,0s0,0,0,0v4.9c0,0,0,0,0,0Z"/>
    <path class="st9" d="M47.7,25.3c0,0,0,0,0,0v-4.8c0,0,0,0,0,0s0,0,0,0v4.8c0,0,0,0,0,0Z"/>
    <path class="st9" d="M47.7,34.4c0,0,0,0,0,0v-4.6c0,0,0,0,0,0s0,0,0,0v4.6c0,0,0,0,0,0Z"/>
    <path class="st9" d="M52.3,31.7c0,0,0,0,0,0v-4.6c0,0,0,0,0,0s0,0,0,0v4.6c0,0,0,0,0,0Z"/>
    <path class="st9" d="M47.7,44.4c0,0,0,0,0,0v-5.1c0,0,0,0,0,0s0,0,0,0v5.1c0,0,0,0,0,0Z"/>
    <path class="st9" d="M55.9,42.7s0,0,0,0l-21.4-8.9s0,0,0-.1c0,0,0,0,.1,0l21.4,8.9s0,0,0,.1c0,0,0,0,0,0Z"/>
    <path class="st9" d="M55.9,37.8s0,0,0,0l-21.4-8.9s0,0,0-.1c0,0,0,0,.1,0l21.4,8.9s0,0,0,.1c0,0,0,0,0,0Z"/>
    <path class="st9" d="M55.9,33.2s0,0,0,0l-21.4-8.9s0,0,0-.1c0,0,0,0,.1,0l21.4,8.9s0,0,0,.1c0,0,0,0,0,0Z"/>
    <path class="st9" d="M55.9,28.7s0,0,0,0l-21.4-8.9s0,0,0-.1c0,0,0,0,.1,0l21.4,8.9s0,0,0,.1c0,0,0,0,0,0Z"/>
  </g>
  <g>
    <path class="st1" d="M52.5,41.5c0,0,0,0,0,0v-4.9c0,0,0,0,0,0s0,0,0,0v4.9c0,0,0,0,0,0Z"/>
    <path class="st1" d="M38.4,21.6c0,0,0,0,0,0v-5c0,0,0,0,0,0s0,0,0,0v5c0,0,0,0,0,0Z"/>
    <path class="st1" d="M38.4,30.8c0,0,0,0,0,0v-4.6c0,0,0,0,0,0s0,0,0,0v4.6c0,0,0,0,0,0Z"/>
    <path class="st1" d="M38.4,40.5c0,0,0,0,0,0v-4.9c0,0,0,0,0,0s0,0,0,0v4.9c0,0,0,0,0,0Z"/>
    <path class="st1" d="M42.7,27.9c0,0,0,0,0,0v-4.6c0,0,0,0,0,0s0,0,0,0v4.6c0,0,0,0,0,0Z"/>
    <path class="st1" d="M42.7,37.4c0,0,0,0,0,0v-4.9c0,0,0,0,0,0s0,0,0,0v4.9c0,0,0,0,0,0Z"/>
    <path class="st1" d="M47.9,25.5c0,0,0,0,0,0v-5c0,0,0,0,0,0s0,0,0,0v5c0,0,0,0,0,0Z"/>
    <path class="st1" d="M47.9,34.7c0,0,0,0,0,0v-4.6c0,0,0,0,0,0s0,0,0,0v4.6c0,0,0,0,0,0Z"/>
    <path class="st1" d="M52.5,32c0,0,0,0,0,0v-4.6c0,0,0,0,0,0s0,0,0,0v4.6c0,0,0,0,0,0Z"/>
    <path class="st1" d="M47.9,44.4c0,0,0,0,0,0v-4.8c0,0,0,0,0,0s0,0,0,0v4.8c0,0,0,0,0,0Z"/>
    <path class="st1" d="M55.9,42.9s0,0,0,0l-21.4-8.9s0,0,0-.1c0,0,0,0,.1,0l21.4,8.9s0,0,0,.1c0,0,0,0,0,0Z"/>
    <path class="st1" d="M55.9,38s0,0,0,0l-21.4-8.9s0,0,0-.1c0,0,0,0,.1,0l21.4,8.9s0,0,0,.1c0,0,0,0,0,0Z"/>
    <path class="st1" d="M55.9,33.4s0,0,0,0l-21.4-8.9s0,0,0-.1c0,0,0,0,.1,0l21.4,8.9s0,0,0,.1c0,0,0,0,0,0Z"/>
    <path class="st1" d="M55.9,28.9s0,0,0,0l-21.4-8.9s0,0,0-.1c0,0,0,0,.1,0l21.4,8.9s0,0,0,.1c0,0,0,0,0,0Z"/>
  </g>
  <rect class="st2" x="55.4" y="24" width=".9" height="23.6"/>
  <polygon class="st10" points="56.5 22 70.4 16.3 70.4 18.8 56.5 24.6 56.5 22"/>
  <polygon class="st7" points="32.6 12.1 32.6 14.6 56.5 24.6 56.5 22 32.6 12.1"/>
  <g class="st5">
    <rect class="st1" x="56.1" y="22" width=".9" height="2.5"/>
    <rect class="st1" x="44.1" y="4.1" width=".9" height="26" transform="translate(11.7 51.7) rotate(-67.5)"/>
    <rect class="st1" x="56" y="18.7" width="15" height=".9" transform="translate(-2.5 25.8) rotate(-22.5)"/>
  </g>
  <path class="st4" d="M34.5,17.1s2.9,1.7,5.1,2,4.6.9,6.2,1.9,4.8,4,10.1,4.3v-.9l-21.4-8.9v1.6Z"/>
  <path class="st9" d="M55.9,48s0,0-.1,0l-21.4-8.9c-.1,0-.2-.2-.2-.3V15.7l-1.8-.7c-.1,0-.2-.2-.2-.3v-2.5c0-.1,0-.3.2-.3l13.9-5.8c0,0,.2,0,.2,0l24,9.9c.1,0,.2.2.2.3v2.5c0,.1,0,.3-.2.3l-1.8.7v22.6c0,.1,0,.3-.2.3l-12.6,5.2s0,0-.1,0ZM34.8,38.6l21,8.7,12.3-5.1v-22.6c0-.1,0-.3.2-.3l1.8-.7v-2.1l-23.7-9.8-13.6,5.6v2.1l1.8.7c.1,0,.2.2.2.3v23.1Z"/>
</svg>