<?xml version="1.0" encoding="UTF-8"?>
<svg id="_레이어_1" data-name="레이어_1" xmlns="http://www.w3.org/2000/svg" version="1.1" xmlns:xlink="http://www.w3.org/1999/xlink" viewBox="0 0 103 54" width="103" height="54">
  <!-- Generator: Adobe Illustrator 29.1.0, SVG Export Plug-In . SVG Version: 2.1.0 Build 142)  -->
  <defs>
    <style>
      .st0 {
        fill: url(#_무제_그라디언트_156);
      }

      .st1 {
        fill: #fff;
      }

      .st2 {
        fill: #4a75a0;
      }

      .st3 {
        fill: #88cbe9;
      }

      .st4 {
        fill: url(#_무제_그라디언트_6);
      }

      .st5 {
        fill: #1e5578;
      }

      .st6 {
        opacity: .5;
      }
    </style>
    <linearGradient id="_무제_그라디언트_6" data-name="무제 그라디언트 6" x1="45.3" y1="20.7" x2="45.3" y2="46.1" gradientUnits="userSpaceOnUse">
      <stop offset="0" stop-color="#8ec3d4"/>
      <stop offset="1" stop-color="#6fa0c2"/>
    </linearGradient>
    <linearGradient id="_무제_그라디언트_156" data-name="무제 그라디언트 156" x1="43.4" y1="20.3" x2="43.4" y2="41" gradientUnits="userSpaceOnUse">
      <stop offset="0" stop-color="#72c0da"/>
      <stop offset="1" stop-color="#4788b7"/>
    </linearGradient>
  </defs>
  <g>
    <polygon class="st3" points="34.3 11.2 34.3 38.8 56.4 47.9 68.7 42.8 68.7 15.2 46.6 6.1 34.3 11.2"/>
    <polygon class="st2" points="68.7 15.2 68.7 42.8 56.4 47.9 56.4 20.3 68.7 15.2"/>
    <polygon class="st4" points="34.3 38.8 56.4 47.9 56.4 20.3 34.3 11.2 34.3 38.8"/>
    <path class="st0" d="M52.5,18.7s-1,19.3-15.9,21.1l-2.3-.9V11.2l18.1,7.5Z"/>
    <g class="st6">
      <rect class="st1" x="55.9" y="20.3" width=".9" height="27.7"/>
      <rect class="st1" x="44.9" y="3.8" width=".9" height="23.8" transform="translate(13.4 51.6) rotate(-67.5)"/>
      <rect class="st1" x="55.8" y="17.3" width="13.3" height=".9" transform="translate(-2 25.3) rotate(-22.5)"/>
    </g>
    <path class="st5" d="M56.4,48.3s0,0-.1,0l-22-9.1c-.1,0-.2-.2-.2-.3V11.2c0-.1,0-.3.2-.3l12.3-5.1c0,0,.2,0,.3,0l22,9.1c.1,0,.2.2.2.3v27.7c0,.1,0,.3-.2.3l-12.3,5.1s0,0-.1,0ZM34.7,38.6l21.7,9,12-5V15.4l-21.7-9-12,5v27.2Z"/>
  </g>
  <path d="M54.1,34.4s0,0,0,0c0,0,0,0,0,0,0,0,0,0,0,0-.1,0-.3-.1-.4-.2-.5-.2-1-.4-1.5-.6h0s0,0,0,0h0s0,0,0,0h0s0,0,0,0c0,0,0,0,0,0,0,0,0,0,0,0,0,0,0,0,0,0,0,0,0,0,0,0,0,0,0,0,0,0,0,0,0,0,0,0,0,0,0,0,0,0,0,0,0-.1,0-.2,0-.1,0-.2,0-.4,0-.7,0-1.4,0-2.1-.1-.8-.3-1.5-.5-2.3-.5-1.5-1.2-3-2.1-4.3-.5-.7-1.1-1.4-1.8-2-.6-.5-1.2-1-1.9-1.3-.7-.3-1.4-.5-2.1-.6-.7,0-1.4,0-2,.3-.7.3-1.2.7-1.6,1.2-.2.3-.4.6-.6.9,0,.2-.2.3-.2.5,0,0,0,.2-.1.3,0,0,0,0,0,0,0,0,0,0,0,0s0,0,0,0c0,0,0,0,0,0h0s0,0,0,0c0,0,0,0,0,0,0,0-.1,0-.2,0-.1,0-.2,0-.3-.1-.4-.2-.9-.4-1.3-.5-.1,0-.2,0-.3-.1,0,0,0,0,0,0,0,0,0,0,0,0,0,0,0,0,0,0,0,0,0,0,0,0h0v2.1h0c0,0,0,0,0,0,0,0,0,0,0,0,0,0,0,0,0,0,0,0,0,0,0,0,.1,0,.2,0,.3.1l.8.3c.1,0,.3.1.4.2,0,0,.1,0,.2,0,0,0,0,0,0,0h0s0,0,0,0c0,0,0,0,0,0h0s0,0,0,0c0,0,0,0,0,0,0,0,0,0,0,0,0,0,0,0,0,.1,0,0,0,.1,0,.2,0,.1,0,.3,0,.4,0,.3,0,.6,0,.9,0,.6,0,1.3.2,1.9.3,1.3.7,2.6,1.3,3.8.4.8.8,1.5,1.4,2.2.5.6,1,1.2,1.6,1.7.6.5,1.2.9,1.8,1.3.6.3,1.3.5,1.9.6.6,0,1.2,0,1.8-.1.3,0,.5-.2.8-.3,0,0,.1,0,.2-.1,0,0,0,0,0,0,0,0,0,0,0,0,0,0,0,0,0,0,0,0,0,0,0,0,0,0,0,0,0,0h0c0,0,0,.1,0,.2.1.2.2.4.3.6.9,1.6,1.8,3.1,2.7,4.7,0,.2.2.3.4.4.1,0,.3.1.4.1.1,0,.3-.1.3-.2,0-.2.1-.3,0-.5,0-.2,0-.4-.2-.6,0,0,0,0,0-.1,0,0,0,0,0-.1,0,0-.1-.2-.2-.3-.2-.4-.4-.7-.6-1.1-.4-.7-.8-1.4-1.3-2.1-.2-.4-.4-.7-.6-1.1-.1-.2-.2-.4-.3-.5,0,0,0,0,0-.1,0,0,0,0,0,0,0,0,0,0,0,0,0,0,0,0,0,0,0,0,0,0,0,0,0,0,0,0,0,0,0,0,0,0,0,0,0,0,0,0,0,0,0,0,0-.1.1-.2.3-.3.5-.7.6-1.1,0-.1,0-.2.1-.3,0,0,0,0,0,0h0s0,0,0,0c0,0,0,0,0,0,0,0,0,0,0,0h0s0,0,0,0,0,0,0,0c0,0,0,0,0,0,0,0,0,0,0,0,0,0,0,0,0,0l.8.3c.5.2,1,.4,1.5.6h0s0,0,0,0h0s0,0,0,0h0v-2.1h0c0-.1,0-.1,0-.1ZM50.7,32.5c0,0,0,.2,0,.2,0,0,0,0,0,.1,0,0,0,0,0,0,0,0,0,0,0,0h0s0,0,0,0c0,0,0,0,0,0,0,0,0,0,0,0,0,0,0,0,0,0,0,0,0,0,0,0-.7-.3-1.5-.6-2.2-.9-.4-.2-.7-.3-1.1-.5,0,0,0,0-.1,0,0,0,0,0,0,0,0,0,0,0,0,0,0,0,0,0,0,0h0v-1.5h0c0-.1,0-.1,0-.1,0,0,0,0,0,0,0,0,0,0,0,0h-.3c-.4.2-.7.4-1.1.5s-.7.3-1.1.4c-.2,0-.4.1-.5.2h-.3c0,.1,0,.1-.1.2,0,0,0,0,0,0s0,0,0,0c0,0,0,0,0,0,0,0,0,0,0,0,0,0,0,0,0,0,0,0,0,0,0,0,0,0,0,0,0,0,.6.8,1.3,1.6,1.9,2.3.3.4.6.8,1,1.2,0,0,.2.2.2.3,0,0,0,0,0,0,0,0,0,0,0,0,0,0,0,0,0,0,0,0,0,0,0,0,0,0,0,0,0,0h0v-1.4h0c0-.1,0-.1,0-.1,0,0,0,0,0,0,0,0,0,0,0,0,0,0,0,0,0,0,0,0,0,0,0,0,0,0,.2,0,.3.1.7.3,1.3.6,2,.8.1,0,.3.1.4.2,0,0,0,0,0,0,0,0,0,0,0,0,0,0,0,0,0,0,0,0,0,0,0,0,0,0,0,0,0,0,0,0,0,0,0,0h0s0,0,0,0c0,0,0,0,0,0,0,0,0,0,0,0,0,0,0,0,0,0,0,0,0,0,0,0,0,0,0,0,0,.1,0,0,0,.1-.1.2,0,.1-.2.3-.3.4-.2.2-.5.5-.7.6-.6.4-1.2.5-1.9.5-.7,0-1.5-.3-2.1-.7-.7-.4-1.3-.9-1.9-1.5-.5-.6-1-1.2-1.3-1.9-.4-.7-.7-1.5-1-2.3-.2-.8-.4-1.5-.5-2.3,0-.7,0-1.4,0-2.1.7.3,1.5.6,2.2.9.4.2.7.3,1.1.5,0,0,0,0,.1,0s0,0,0,0h0s0,0,0,0h0v1.5h0c0,.1,0,.1,0,.1,0,0,0,0,0,0,0,0,0,0,0,0,0,0,.2,0,.3-.1l1.1-.4c.4-.1.7-.3,1.1-.4l.5-.2h.3c0-.1,0-.1.1-.2,0,0,0,0,0,0,0,0,0,0,0,0,0,0,0,0,0,0,0,0,0,0,0,0,0,0,0,0,0,0,0,0,0,0,0,0,0,0,0,0,0,0-.6-.8-1.3-1.6-1.9-2.3-.3-.4-.6-.8-1-1.2l-.2-.3s0,0,0,0c0,0,0,0,0,0,0,0,0,0,0,0,0,0,0,0,0,0,0,0,0,0,0,0h0v1.4h0c0,.1,0,.1,0,.1,0,0,0,0,0,0,0,0,0,0,0,0,0,0,0,0,0,0,0,0,0,0,0,0,0,0-.2,0-.3-.1-.7-.3-1.3-.6-2-.8-.1,0-.3-.1-.4-.2,0,0,0,0,0,0,0,0,0,0,0,0,0,0,0,0,0,0,0,0,0,0,0,0,0,0,0,0,0,0,0,0,0,0,0,0,0,0,0,0,0,0h0s0,0,0,0c0,0,0,0,0,0,0,0,0,0,0,0,0,0,0,0,0,0,0,0,0,0,0-.1,0,0,0-.1.1-.2,0-.1.2-.3.3-.4.2-.2.5-.5.7-.6.6-.4,1.2-.5,1.9-.5.7,0,1.5.3,2.1.7.7.4,1.3.9,1.9,1.5.5.6,1,1.2,1.3,1.9.4.7.7,1.5,1,2.3.2.8.4,1.5.5,2.3,0,.4,0,.7,0,1.1,0,.2,0,.3,0,.5Z"/>
</svg>