<?xml version="1.0" encoding="UTF-8"?>
<svg id="_레이어_1" data-name="레이어_1" xmlns="http://www.w3.org/2000/svg" version="1.1" xmlns:xlink="http://www.w3.org/1999/xlink" viewBox="0 0 103 54" width="103" height="54">
  <!-- Generator: Adobe Illustrator 29.1.0, SVG Export Plug-In . SVG Version: 2.1.0 Build 142)  -->
  <defs>
    <style>
      .st0 {
        fill: url(#_무제_그라디언트_156);
      }

      .st1 {
        fill: #fff;
      }

      .st2 {
        fill: #4a75a0;
      }

      .st3 {
        fill: #88cbe9;
      }

      .st4 {
        fill: url(#_무제_그라디언트_6);
      }

      .st5 {
        fill: #1e5578;
      }

      .st6 {
        opacity: .5;
      }
    </style>
    <linearGradient id="_무제_그라디언트_6" data-name="무제 그라디언트 6" x1="41.8" y1="28.9" x2="41.8" y2="41" gradientUnits="userSpaceOnUse">
      <stop offset="0" stop-color="#8ec3d4"/>
      <stop offset="1" stop-color="#6fa0c2"/>
    </linearGradient>
    <linearGradient id="_무제_그라디언트_156" data-name="무제 그라디언트 156" x1="39" y1="20.6" x2="39" y2="40.9" gradientUnits="userSpaceOnUse">
      <stop offset="0" stop-color="#72c0da"/>
      <stop offset="1" stop-color="#4788b7"/>
    </linearGradient>
  </defs>
  <g>
    <polygon class="st3" points="31.3 20.1 50.7 12.1 71.7 20.8 71.7 33.9 52.3 41.9 31.3 33.2 31.3 20.1"/>
    <polygon class="st4" points="31.3 20.1 31.3 33.2 52.3 41.9 52.3 28.8 31.3 20.1"/>
    <polygon class="st2" points="71.7 33.9 52.3 41.9 52.3 28.8 71.7 20.8 71.7 33.9"/>
    <path class="st0" d="M31.3,30.9v-10.8l15.3,6.3s-2.6,6.6-15.3,4.4Z"/>
    <g class="st6">
      <rect class="st1" x="51.9" y="28.8" width=".9" height="13.1"/>
      <rect class="st1" x="41.4" y="13.1" width=".9" height="22.7" transform="translate(3.2 53.7) rotate(-67.5)"/>
      <rect class="st1" x="51.5" y="24.4" width="21" height=".9" transform="translate(-4.8 25.6) rotate(-22.5)"/>
    </g>
    <path class="st5" d="M52.3,42.2s0,0-.1,0l-21-8.7c-.1,0-.2-.2-.2-.3v-13.1c0-.1,0-.2.2-.3l19.4-8c0,0,.2,0,.2,0l21,8.7c.1,0,.2.2.2.3v13.1c0,.1,0,.2-.2.3l-19.4,8s0,0-.1,0ZM31.6,33l20.7,8.6,19-7.9v-12.6l-20.7-8.6-19,7.9v12.6Z"/>
  </g>
  <g>
    <g>
      <polygon points="41.9 32.3 45.3 35.3 45.5 34.8 46.8 37.6 44.6 37.4 44.8 36.9 41.4 33.9 41.9 32.3"/>
      <polygon points="41.9 32 46.5 33.9 46.5 34.6 48.9 34 46.5 31.4 46.5 32 41.9 30.1 41.9 32"/>
      <polygon points="33.7 28.6 38.3 30.5 38.3 31.1 40.7 30.5 38.3 28 38.3 28.6 33.7 26.7 33.7 28.6"/>
      <polygon points="41.9 29.8 45.3 29.6 45.5 30.3 46.8 28.5 44.6 26.9 44.8 27.6 41.4 27.8 41.9 29.8"/>
    </g>
    <g>
      <polygon points="48.8 22.4 54 24.5 52.9 25 58.3 25 58.3 22.8 57.2 23.2 52 21.1 48.8 22.4"/>
      <polygon points="54.2 18.6 49 16.4 50.1 16 44.7 16 44.7 18.2 45.8 17.7 51 19.9 54.2 18.6"/>
      <polygon points="56.4 19.2 61.6 21.4 60.5 21.8 65.9 21.8 65.9 19.6 64.8 20.1 59.5 17.9 56.4 19.2"/>
      <polygon points="46.6 21.7 41.4 19.6 42.5 19.1 37.2 19.1 37.2 21.3 38.3 20.9 43.5 23 46.6 21.7"/>
    </g>
  </g>
</svg>