<?xml version="1.0" encoding="UTF-8"?>
<svg id="_레이어_1" data-name="레이어_1" xmlns="http://www.w3.org/2000/svg" version="1.1" xmlns:xlink="http://www.w3.org/1999/xlink" viewBox="0 0 103 54" width="103" height="54">
  <!-- Generator: Adobe Illustrator 29.1.0, SVG Export Plug-In . SVG Version: 2.1.0 Build 142)  -->
  <defs>
    <style>
      .st0 {
        fill: url(#_무제_그라디언트_156);
      }

      .st1 {
        fill: #fff;
      }

      .st2 {
        fill: #4a75a0;
      }

      .st3 {
        fill: #88cbe9;
      }

      .st4 {
        fill: url(#_무제_그라디언트_6);
      }

      .st5 {
        fill: #1e5578;
      }

      .st6 {
        opacity: .5;
      }
    </style>
    <linearGradient id="_무제_그라디언트_6" data-name="무제 그라디언트 6" x1="45.3" y1="20.7" x2="45.3" y2="46.1" gradientUnits="userSpaceOnUse">
      <stop offset="0" stop-color="#8ec3d4"/>
      <stop offset="1" stop-color="#6fa0c2"/>
    </linearGradient>
    <linearGradient id="_무제_그라디언트_156" data-name="무제 그라디언트 156" x1="43.4" y1="20.3" x2="43.4" y2="41" gradientUnits="userSpaceOnUse">
      <stop offset="0" stop-color="#72c0da"/>
      <stop offset="1" stop-color="#4788b7"/>
    </linearGradient>
  </defs>
  <polygon class="st3" points="34.3 11.2 34.3 38.8 56.4 47.9 68.7 42.8 68.7 15.2 46.6 6.1 34.3 11.2"/>
  <polygon class="st2" points="68.7 15.2 68.7 42.8 56.4 47.9 56.4 20.3 68.7 15.2"/>
  <polygon class="st4" points="34.3 38.8 56.4 47.9 56.4 20.3 34.3 11.2 34.3 38.8"/>
  <path class="st0" d="M52.5,18.7s-1,19.3-15.9,21.1l-2.3-.9V11.2l18.1,7.5Z"/>
  <g>
    <path class="st5" d="M45.3,34.2c0,0,0,0,0,0v-4.6c0,0,0,0,0,0s0,0,0,0v4.6c0,0,0,0,0,0Z"/>
    <path class="st5" d="M45.3,43.5c0,0,0,0,0,0v-4.6c0,0,0,0,0,0s0,0,0,0v4.6c0,0,0,0,0,0Z"/>
    <path class="st5" d="M53.4,46.8c0,0,0,0,0,0v-4.6c0,0,0,0,0,0s0,0,0,0v4.6c0,0,0,0,0,0Z"/>
    <path class="st5" d="M53.4,37.6c0,0,0,0,0,0v-4.6c0,0,0,0,0,0s0,0,0,0v4.6c0,0,0,0,0,0Z"/>
    <path class="st5" d="M37.3,40.1c0,0,0,0,0,0v-4.6c0,0,0,0,0,0s0,0,0,0v4.6c0,0,0,0,0,0Z"/>
    <path class="st5" d="M37.3,30.9c0,0,0,0,0,0v-4.6c0,0,0,0,0,0s0,0,0,0v4.6c0,0,0,0,0,0Z"/>
    <path class="st5" d="M41.3,37.2c0,0,0,0,0,0v-4.6c0,0,0,0,0,0s0,0,0,0v4.6c0,0,0,0,0,0Z"/>
    <path class="st5" d="M49.4,40.5c0,0,0,0,0,0v-4.6c0,0,0,0,0,0s0,0,0,0v4.6c0,0,0,0,0,0Z"/>
    <path class="st5" d="M53.4,37.6s0,0,0,0l-8.1-3.4s0,0,0-.1c0,0,0,0,.1,0l8.1,3.4s0,0,0,.1c0,0,0,0,0,0Z"/>
    <path class="st5" d="M56.4,43.4s0,0,0,0l-22-9.1s0,0,0-.1c0,0,0,0,.1,0l22,9.1s0,0,0,.1c0,0,0,0,0,0Z"/>
    <path class="st5" d="M56.4,38.8s0,0,0,0l-22-9.1s0,0,0-.1c0,0,0,0,.1,0l22,9.1s0,0,0,.1c0,0,0,0,0,0Z"/>
    <path class="st5" d="M56.4,34.2s0,0,0,0l-22-9.1s0,0,0-.1c0,0,0,0,.1,0l22,9.1s0,0,0,.1c0,0,0,0,0,0Z"/>
  </g>
  <g>
    <path class="st1" d="M45.5,34.5c0,0,0,0,0,0v-4.6c0,0,0,0,0,0s0,0,0,0v4.6c0,0,0,0,0,0Z"/>
    <path class="st1" d="M45.5,43.5c0,0,0,0,0,0v-4.4c0,0,0,0,0,0s0,0,0,0v4.4c0,0,0,0,0,0Z"/>
    <path class="st1" d="M53.6,46.8c0,0,0,0,0,0v-4.4c0,0,0,0,0,0s0,0,0,0v4.4c0,0,0,0,0,0Z"/>
    <path class="st1" d="M53.6,37.9c0,0,0,0,0,0v-4.6c0,0,0,0,0,0s0,0,0,0v4.6c0,0,0,0,0,0Z"/>
    <path class="st1" d="M37.4,40.1c0,0,0,0,0,0v-4.4c0,0,0,0,0,0s0,0,0,0v4.4c0,0,0,0,0,0Z"/>
    <path class="st1" d="M37.4,31.2c0,0,0,0,0,0v-4.6c0,0,0,0,0,0s0,0,0,0v4.6c0,0,0,0,0,0Z"/>
    <path class="st1" d="M41.5,37.4c0,0,0,0,0,0v-4.6c0,0,0,0,0,0s0,0,0,0v4.6c0,0,0,0,0,0Z"/>
    <path class="st1" d="M49.6,40.8c0,0,0,0,0,0v-4.6c0,0,0,0,0,0s0,0,0,0v4.6c0,0,0,0,0,0Z"/>
    <path class="st1" d="M53.6,37.9s0,0,0,0l-8.1-3.4s0,0,0-.1c0,0,0,0,.1,0l8.1,3.4s0,0,0,.1c0,0,0,0,0,0Z"/>
    <path class="st1" d="M56.4,43.6s0,0,0,0l-21.8-9.1s0,0,0-.1c0,0,0,0,.1,0l21.8,9.1s0,0,0,.1c0,0,0,0,0,0Z"/>
    <path class="st1" d="M56.4,39s0,0,0,0l-21.8-9.1s0,0,0-.1c0,0,0,0,.1,0l21.8,9.1s0,0,0,.1c0,0,0,0,0,0Z"/>
    <path class="st1" d="M56.4,34.4s0,0,0,0l-21.8-9.1s0,0,0-.1c0,0,0,0,.1,0l21.8,9.1s0,0,0,.1c0,0,0,0,0,0Z"/>
  </g>
  <g>
    <path class="st5" d="M59.4,46.8c0,0,0,0,0,0v-4.6c0,0,0,0,0,0s0,0,0,0v4.6c0,0,0,0,0,0Z"/>
    <path class="st5" d="M65.6,35c0,0,0,0,0,0v-4.6c0,0,0,0,0,0s0,0,0,0v4.6c0,0,0,0,0,0Z"/>
    <path class="st5" d="M59.4,37.5c0,0,0,0,0,0v-4.6c0,0,0,0,0,0s0,0,0,0v4.6c0,0,0,0,0,0Z"/>
    <path class="st5" d="M62.5,40.8c0,0,0,0,0,0v-4.6c0,0,0,0,0,0s0,0,0,0v4.6c0,0,0,0,0,0Z"/>
    <path class="st5" d="M62.5,31.7s0,0,0,0c0,0,0-.1,0-.1l6.2-2.6s.1,0,.1,0c0,0,0,.1,0,.1l-6.2,2.6s0,0,0,0Z"/>
    <path class="st5" d="M56.4,34.2s0,0,0,0c0,0,0-.1,0-.1l6.2-2.6s.1,0,.1,0c0,0,0,.1,0,.1l-6.2,2.6s0,0,0,0Z"/>
    <path class="st5" d="M56.4,43.4s0,0,0,0c0,0,0-.1,0-.1l12.3-5.1s.1,0,.1,0c0,0,0,.1,0,.1l-12.3,5.1s0,0,0,0Z"/>
    <path class="st5" d="M56.4,38.8s0,0,0,0c0,0,0-.1,0-.1l12.3-5.1s.1,0,.1,0c0,0,0,.1,0,.1l-12.3,5.1s0,0,0,0Z"/>
    <path class="st5" d="M65.6,44.2c0,0,0,0,0,0v-4.6c0,0,0,0,0,0s0,0,0,0v4.6c0,0,0,0,0,0Z"/>
  </g>
  <g class="st6">
    <path class="st1" d="M59.6,46.9c0,0,0,0,0,0v-4.6c0,0,0,0,0,0s0,0,0,0v4.6c0,0,0,0,0,0Z"/>
    <path class="st1" d="M65.8,35.1c0,0,0,0,0,0v-4.6c0,0,0,0,0,0s0,0,0,0v4.6c0,0,0,0,0,0Z"/>
    <path class="st1" d="M59.6,37.7c0,0,0,0,0,0v-4.6c0,0,0,0,0,0s0,0,0,0v4.6c0,0,0,0,0,0Z"/>
    <path class="st1" d="M62.7,41c0,0,0,0,0,0v-4.6c0,0,0,0,0,0s0,0,0,0v4.6c0,0,0,0,0,0Z"/>
    <path class="st1" d="M62.7,31.8s0,0,0,0c0,0,0-.1,0-.1l6.2-2.6s.1,0,.1,0c0,0,0,.1,0,.1l-6.2,2.6s0,0,0,0Z"/>
    <path class="st1" d="M56.4,34.4s0,0,0,0c0,0,0-.1,0-.1l6.3-2.6s.1,0,.1,0c0,0,0,.1,0,.1l-6.3,2.6s0,0,0,0Z"/>
    <path class="st1" d="M56.4,43.6s0,0,0,0c0,0,0-.1,0-.1l12.5-5.2s.1,0,.1,0c0,0,0,.1,0,.1l-12.5,5.2s0,0,0,0Z"/>
    <path class="st1" d="M56.4,39s0,0,0,0c0,0,0-.1,0-.1l12.5-5.2s.1,0,.1,0c0,0,0,.1,0,.1l-12.5,5.2s0,0,0,0Z"/>
    <path class="st1" d="M65.8,44.3c0,0,0,0,0,0v-4.6c0,0,0,0,0,0s0,0,0,0v4.6c0,0,0,0,0,0Z"/>
  </g>
  <g>
    <polygon points="45.7 17.9 45 17.6 45 27.4 45.7 27.7 45.7 17.9"/>
    <polygon points="54.4 28.3 48.5 25.9 48.5 27.2 46 22.9 48.5 20.7 48.5 22.1 54.4 24.5 54.4 28.3"/>
    <polygon points="36.3 20.8 42.1 23.2 42.1 24.6 44.7 22.4 42.1 18.1 42.1 19.4 36.3 17 36.3 20.8"/>
  </g>
  <g class="st6">
    <rect class="st1" x="55.9" y="20.3" width=".9" height="27.7"/>
    <rect class="st1" x="44.9" y="3.8" width=".9" height="23.8" transform="translate(13.4 51.6) rotate(-67.5)"/>
    <rect class="st1" x="55.8" y="17.3" width="13.3" height=".9" transform="translate(-2 25.3) rotate(-22.5)"/>
  </g>
  <path class="st5" d="M56.4,48.3s0,0-.1,0l-22-9.1c-.1,0-.2-.2-.2-.3V11.2c0-.1,0-.3.2-.3l12.3-5.1c0,0,.2,0,.3,0l22,9.1c.1,0,.2.2.2.3v27.7c0,.1,0,.3-.2.3l-12.3,5.1s0,0-.1,0ZM34.7,38.6l21.7,9,12-5V15.4l-21.7-9-12,5v27.2Z"/>
</svg>