<?xml version="1.0" encoding="UTF-8"?>
<svg id="_레이어_1" data-name="레이어_1" xmlns="http://www.w3.org/2000/svg" version="1.1" xmlns:xlink="http://www.w3.org/1999/xlink" viewBox="0 0 103 54" width="103" height="54">
  <!-- Generator: Adobe Illustrator 29.1.0, SVG Export Plug-In . SVG Version: 2.1.0 Build 142)  -->
  <defs>
    <style>
      .st0 {
        opacity: .2;
      }

      .st0, .st1 {
        fill: #fff;
      }

      .st2 {
        fill: url(#_무제_그라디언트_146);
      }

      .st1 {
        opacity: .5;
      }

      .st3 {
        fill: #88cbe9;
      }

      .st4 {
        fill: #1e5578;
      }
    </style>
    <linearGradient id="_무제_그라디언트_146" data-name="무제 그라디언트 146" x1="31.3" y1="27" x2="71.7" y2="27" gradientUnits="userSpaceOnUse">
      <stop offset="0" stop-color="#85c2de"/>
      <stop offset="1" stop-color="#4a75a0"/>
    </linearGradient>
  </defs>
  <path class="st2" d="M31.3,21.5c0-1,.3-1.9.8-2.7.5-.9,1.3-1.8,2.1-2.4.7-.6,1.6-1.2,2.4-1.6.9-.5,1.9-.9,2.9-1.3.9-.3,1.8-.6,2.8-.9,1-.3,2.1-.5,3.1-.6,2-.3,4.1-.5,6.1-.5,2,0,4.1.2,6.1.5,1.1.2,2.1.4,3.1.6.9.2,1.9.5,2.8.9,1,.4,2,.8,2.9,1.3.8.5,1.7,1,2.4,1.6.8.7,1.6,1.5,2.1,2.4.5.8.8,1.8.8,2.7v10.9c0,.8-.2,1.5-.5,2.3-.4.8-.9,1.5-1.5,2.1-.5.6-1.2,1.1-1.8,1.5-.7.5-1.4.9-2.2,1.3-.7.3-1.4.6-2.1.9-.8.3-1.6.6-2.5.8-1.6.4-3.2.7-4.8.9-3.2.4-6.6.4-9.8,0-1.6-.2-3.2-.5-4.8-.9-.8-.2-1.7-.5-2.5-.8-.7-.3-1.4-.6-2.1-.9-1.4-.7-2.8-1.6-4-2.8-.6-.6-1-1.2-1.4-2-.4-.7-.6-1.5-.6-2.3v-10.9Z"/>
  <path class="st0" d="M44.2,37c-5.7-2.4-8.9-9.4-8.9-9.4h0c-.7-.5-1.4-1.1-2-1.7-.6-.6-1-1.2-1.4-2,0,0,0,0,0,0v8.3c0,.8.2,1.6.5,2.3.3.7.8,1.4,1.4,2,1.1,1.2,2.5,2.1,3.9,2.8.7.3,1.4.6,2.1.9.8.3,1.6.6,2.4.8,1.5.4,3.1.7,4.7.9,3.1.4,6.4.4,9.5,0-4.6-2.8-5.9-2.2-12.3-4.9Z"/>
  <path class="st3" d="M31.3,21.5c0-1,.3-1.9.8-2.7.5-.9,1.3-1.8,2.1-2.4.7-.6,1.6-1.2,2.4-1.6.9-.5,1.9-.9,2.9-1.3.9-.3,1.8-.6,2.8-.9,1-.3,2.1-.5,3.1-.6,2-.3,4.1-.5,6.1-.5,2,0,4.1.2,6.1.5,1.1.2,2.1.4,3.1.6.9.2,1.9.5,2.8.9,1,.4,2,.8,2.9,1.3.8.5,1.7,1,2.4,1.6.8.7,1.6,1.5,2.1,2.4.5.8.8,1.8.8,2.7s-.2,1.5-.5,2.3c-.4.8-.9,1.5-1.5,2.1-.5.6-1.2,1.1-1.8,1.5-.7.5-1.4.9-2.2,1.3-.7.3-1.4.6-2.1.9-.8.3-1.6.6-2.5.8-1.6.4-3.2.7-4.8.9-3.2.4-6.6.4-9.8,0-1.6-.2-3.2-.5-4.8-.9-.8-.2-1.7-.5-2.5-.8-.7-.3-1.4-.6-2.1-.9-1.4-.7-2.8-1.6-4-2.8-.6-.6-1-1.2-1.4-2-.4-.7-.6-1.5-.6-2.3Z"/>
  <path class="st1" d="M51.5,32.1c-1.7,0-3.3-.1-5-.3-1.7-.2-3.3-.5-4.9-1-.9-.2-1.7-.5-2.5-.8-.8-.3-1.5-.6-2.2-.9-1.7-.8-3.1-1.8-4.1-2.9-.6-.7-1.1-1.4-1.5-2.1-.4-.8-.4-1.7-.4-2.5h.6c0,.7.3,1.4.6,2.2.3.6.8,1.3,1.3,1.9,1,1,2.2,1.9,3.8,2.7s1.3.6,2.1.9c.8.3,1.6.6,2.4.8,1.5.4,3.1.7,4.7.9,3.2.4,6.5.4,9.6,0,1.7-.2,3.2-.5,4.7-.9.9-.2,1.6-.5,2.4-.8.7-.3,1.4-.6,2.1-.9.8-.4,1.5-.8,2.1-1.2.7-.5,1.2-1,1.7-1.5.6-.6,1.1-1.3,1.4-2,.3-.7.6-1.4.6-2.1h.6c0,.8,0,1.6-.4,2.4-.4.8-.9,1.5-1.5,2.2-.5.6-1.2,1.1-1.9,1.6-.7.5-1.4.9-2.2,1.3-.7.3-1.4.6-2.2.9-.8.3-1.6.6-2.5.8-1.5.4-3.2.7-4.9.9-1.6.2-3.3.3-4.9.3Z"/>
  <path class="st4" d="M51.5,42.9c-1.7,0-3.3-.1-4.9-.3-1.7-.2-3.3-.5-4.8-.9-.9-.2-1.7-.5-2.5-.8-.8-.3-1.5-.6-2.1-.9-1.7-.8-3-1.8-4-2.9-.6-.7-1.1-1.4-1.5-2.1-.4-.8-.6-1.6-.6-2.5v-10.9c0-1,.3-2,.8-2.9.5-.9,1.2-1.7,2.2-2.5.7-.6,1.5-1.2,2.5-1.7.9-.5,1.9-.9,3-1.3.9-.3,1.8-.6,2.8-.9,1-.3,2.1-.5,3.2-.7,4-.6,8.3-.6,12.3,0,1.1.2,2.2.4,3.2.7,1,.3,1.9.5,2.8.9,1.1.4,2.1.8,3,1.3.9.5,1.8,1.1,2.5,1.7.9.8,1.7,1.6,2.2,2.5.5.9.8,1.9.8,2.9v10.9c0,.8-.2,1.6-.5,2.4-.3.8-.9,1.5-1.5,2.2-.5.5-1.1,1.1-1.9,1.6-.7.5-1.4.9-2.2,1.3-.7.3-1.4.6-2.1.9-.8.3-1.6.6-2.5.8-1.5.4-3.2.7-4.8.9-1.6.2-3.3.3-4.9.3ZM51.5,11.8c-2,0-4.1.2-6,.5-1.1.2-2.1.4-3.1.6-1,.2-1.9.5-2.7.9-1,.4-2,.8-2.9,1.3-.9.5-1.7,1-2.4,1.6-.9.7-1.6,1.5-2,2.4-.5.8-.7,1.7-.7,2.6v10.9c0,.7.2,1.5.5,2.2.3.7.8,1.3,1.3,1.9,1,1,2.3,1.9,3.9,2.7.7.3,1.3.6,2.1.9.8.3,1.6.6,2.4.8,1.5.4,3.1.7,4.8.9,3.2.4,6.5.4,9.7,0,1.7-.2,3.3-.5,4.8-.9.9-.2,1.7-.5,2.4-.8.7-.3,1.4-.6,2.1-.9.8-.4,1.5-.8,2.1-1.3.7-.5,1.3-1,1.8-1.5.6-.6,1.1-1.3,1.4-2,.3-.7.5-1.4.5-2.1v-10.9c0-.9-.2-1.7-.7-2.6-.5-.8-1.1-1.6-2-2.4-.7-.6-1.5-1.1-2.4-1.6-.9-.5-1.8-.9-2.9-1.3-.9-.3-1.8-.6-2.7-.9-1-.3-2-.5-3.1-.6-2-.3-4-.5-6-.5Z"/>
  <g>
    <polygon points="65.1 26.3 59.3 23.5 60.7 22.8 54 22.8 54 26.1 55.3 25.4 61.1 28.3 65.1 26.3"/>
    <polygon points="52.4 19.1 58.2 16.2 56.8 15.5 63.5 15.5 63.5 18.9 62.2 18.2 56.4 21.1 52.4 19.1"/>
    <polygon points="41.9 14.7 47.7 17.6 49 16.9 49 20.3 42.3 20.3 43.7 19.6 37.9 16.7 41.9 14.7"/>
    <polygon points="46.6 22 40.8 24.9 39.5 24.2 39.5 27.6 46.2 27.6 44.8 26.9 50.6 24 46.6 22"/>
  </g>
</svg>