<?xml version="1.0" encoding="UTF-8"?>
<svg id="_레이어_1" data-name="레이어_1" xmlns="http://www.w3.org/2000/svg" version="1.1" xmlns:xlink="http://www.w3.org/1999/xlink" viewBox="0 0 103 54" width="103" height="54">
  <!-- Generator: Adobe Illustrator 29.1.0, SVG Export Plug-In . SVG Version: 2.1.0 Build 142)  -->
  <defs>
    <style>
      .st0 {
        fill: url(#_무제_그라디언트_156);
      }

      .st1 {
        fill: url(#_무제_그라디언트_25);
      }

      .st2 {
        fill: #fff;
      }

      .st3 {
        fill: #4a75a0;
      }

      .st4 {
        fill: #88cbe9;
      }

      .st5 {
        fill: url(#_무제_그라디언트_251);
      }

      .st6 {
        fill: url(#_무제_그라디언트_6);
      }

      .st7 {
        fill: #1e5578;
      }

      .st8 {
        fill: #2a3045;
      }

      .st9 {
        opacity: .5;
      }
    </style>
    <linearGradient id="_무제_그라디언트_6" data-name="무제 그라디언트 6" x1="45.4" y1="20.7" x2="45.4" y2="45.9" gradientUnits="userSpaceOnUse">
      <stop offset="0" stop-color="#8ec3d4"/>
      <stop offset="1" stop-color="#6fa0c2"/>
    </linearGradient>
    <linearGradient id="_무제_그라디언트_156" data-name="무제 그라디언트 156" x1="43.5" y1="20.4" x2="43.5" y2="40.8" gradientUnits="userSpaceOnUse">
      <stop offset="0" stop-color="#72c0da"/>
      <stop offset="1" stop-color="#4788b7"/>
    </linearGradient>
    <radialGradient id="_무제_그라디언트_25" data-name="무제 그라디언트 25" cx="64" cy="27.2" fx="64" fy="27.2" r="10.5" gradientUnits="userSpaceOnUse">
      <stop offset=".1" stop-color="#fff"/>
      <stop offset=".7" stop-color="#000"/>
    </radialGradient>
    <radialGradient id="_무제_그라디언트_251" data-name="무제 그라디언트 25" cy="38.9" fy="38.9" r="10.5" xlink:href="#_무제_그라디언트_25"/>
  </defs>
  <g>
    <polygon class="st4" points="34.6 11.4 34.6 38.7 56.3 47.7 68.4 42.6 68.4 15.3 46.7 6.3 34.6 11.4"/>
    <polygon class="st3" points="68.4 15.3 68.4 42.6 56.3 47.7 56.3 20.4 68.4 15.3"/>
    <polygon class="st6" points="34.6 38.7 56.3 47.7 56.3 20.4 34.6 11.4 34.6 38.7"/>
    <path class="st0" d="M52.5,18.8s-1,19-15.7,20.8l-2.2-.9V11.4l17.9,7.4Z"/>
    <g class="st9">
      <rect class="st2" x="55.8" y="20.4" width=".9" height="27.3"/>
      <rect class="st2" x="45" y="4.1" width=".9" height="23.5" transform="translate(13.4 51.8) rotate(-67.5)"/>
      <rect class="st2" x="55.8" y="17.4" width="13.2" height=".9" transform="translate(-2.1 25.2) rotate(-22.5)"/>
    </g>
    <path class="st7" d="M56.3,48s0,0-.1,0l-21.7-9c-.1,0-.2-.2-.2-.3V11.4c0-.1,0-.3.2-.3l12.2-5c0,0,.2,0,.2,0l21.7,9c.1,0,.2.2.2.3v27.3c0,.1,0,.3-.2.3l-12.2,5s0,0-.1,0ZM34.9,38.4l21.4,8.9,11.8-4.9V15.6l-21.4-8.9-11.8,4.9v26.9Z"/>
  </g>
  <g>
    <polygon points="52.3 36 45.6 33.2 45.6 31.2 38.5 32.5 45.6 39.7 45.6 37.7 52.3 40.5 52.3 36"/>
    <polygon points="38.5 23.1 45.3 25.9 45.3 27.9 52.3 26.5 45.3 19.4 45.3 21.4 38.5 18.6 38.5 23.1"/>
  </g>
  <path class="st8" d="M60.6,41.7c-.5-.2-.8-.6-1.1-1-.2-.4-.4-1-.4-1.5,0-1,.1-2.1.5-3,.4-.9,1-1.8,1.8-2.5.2-.2.4-.3.7-.5.2-.1.4-.2.7-.3.5-.1,1-.2,1.5,0,.4.2.7.5,1,.8.2.4.4.8.5,1.2.2.8,0,1.8-.1,2.6-.2.8-.6,1.6-1.1,2.3-.5.7-1.2,1.3-2,1.6-.6.2-1.2.3-1.8,0Z"/>
  <path class="st8" d="M60.6,30c-.4-.2-.7-.5-1-.8-.2-.4-.4-.8-.5-1.2-.2-.8,0-1.8.1-2.6.2-.8.6-1.6,1.1-2.3.5-.7,1.2-1.3,2-1.6.6-.2,1.2-.3,1.8,0,.5.2.8.6,1.1,1,.2.4.4,1,.4,1.5,0,1-.1,2.1-.5,3-.4.9-1,1.8-1.8,2.5-.2.2-.4.3-.7.5-.2.1-.4.2-.7.3-.5.1-1,.2-1.5,0Z"/>
  <path class="st1" d="M62.4,21.4c.4-.1.7-.2,1.1-.2.3.3.6.7.7,1.1.1.4.2.9.2,1.3,0,.9-.2,1.8-.5,2.6-.3.8-.8,1.6-1.5,2.2-.3.3-.7.6-1.1.8-.4.2-.8.3-1.3.3-.3-.3-.5-.6-.7-1-.1-.4-.2-.8-.3-1.2,0-.8,0-1.6.3-2.4.2-.8.6-1.5,1.1-2.1.5-.6,1.1-1.2,1.9-1.5Z"/>
  <path class="st5" d="M62.4,33.1c.4-.1.7-.2,1.1-.2.3.3.6.7.7,1.1.1.4.2.9.2,1.3,0,.9-.2,1.8-.5,2.6-.3.8-.8,1.6-1.5,2.2-.3.3-.7.6-1.1.8-.4.2-.8.3-1.3.3-.3-.3-.5-.6-.7-1-.1-.4-.2-.8-.3-1.2,0-.8,0-1.6.3-2.4.2-.8.6-1.5,1.1-2.1.5-.6,1.1-1.2,1.9-1.5Z"/>
</svg>