<?xml version="1.0" encoding="utf-8"?>
<!-- Generator: Adobe Illustrator 25.0.0, SVG Export Plug-In . SVG Version: 6.00 Build 0)  -->
<svg version="1.1" id="레이어_1" xmlns="http://www.w3.org/2000/svg" xmlns:xlink="http://www.w3.org/1999/xlink" x="0px"
	 y="0px" viewBox="0 0 128 128" style="enable-background:new 0 0 128 128;" xml:space="preserve">
<style type="text/css">
	.st0{fill:#3F9AEE;}
	.st1{fill:#FFFFFF;}
</style>
<g>
	<g>
		<g>
			<path class="st0" d="M64.28,0C35.96,0,13,24.4,13,49.24c0,0.44,0,0.88,0,1.32c0,0.44,0,0.88,0,1.47
				C14.51,87.3,64.28,128,64.28,128s49.78-40.41,51.12-75.97c0-0.44,0-0.88,0-1.47c0-0.44,0-0.88,0-1.32
				C115.57,24.4,92.61,0,64.28,0z"/>
		</g>
	</g>
</g>
<g>
	<path class="st1" d="M53.42,63.69h-5.13c-0.27-0.9-0.45-1.9-0.53-2.87c-1.79,2.17-4.95,3.36-9.45,3.36
		c-9.4,0-14.64-6.39-14.64-14.69c0-8.76,5.66-15.35,15.86-15.35c8.33,0,13.23,4.23,14.01,9.2h-7c-0.67-1.95-2.38-4.26-7.11-4.26
		c-6.65,0-8.54,5-8.54,10.14c0,5.01,2.17,9.95,8.58,9.95c5.98,0,7.08-3.74,7.08-6.34v-0.26h-7.1v-5.16h13.96V63.69z"/>
	<path class="st1" d="M68.47,34.13V64h-6.4V34.13H68.47z"/>
	<path class="st1" d="M81.92,55.15c0.74,2.92,3.07,4.21,6.81,4.21c3.74,0,5.33-1.33,5.33-3.46c0-2.37-1.56-3.4-7.09-4.56
		c-8.81-1.86-10.99-4.75-10.99-8.68c0-5.08,4.22-8.52,11.88-8.52c8.59,0,12.01,4.16,12.48,8.42H93.3c-0.34-1.79-1.44-3.74-5.61-3.74
		c-2.84,0-4.55,1.06-4.55,3.13c0,2.03,1.38,2.85,6.6,3.94c9.41,2,11.48,5.15,11.48,9.26c0,5.32-4.47,8.97-13.03,8.97
		c-8.22,0-12.54-3.64-13.32-8.95H81.92z"/>
</g>
</svg>
