<svg xmlns="http://www.w3.org/2000/svg" id="_이어_1" viewBox="0 0 58 62">
  <defs>
    <style>
      .cls-1, .cls-2{fill:#fff;}
      .cls-2{font-family:MalgunGothic, 'Malgun Gothic';font-size:10px;}
      .cls-3{fill:transparent;}
    </style>
  </defs>
  <g id="_애현황">
    <rect class="cls-3" width="58" height="62" rx="6.97" ry="6.97"/>
  </g>
  <text class="cls-2" transform="translate(19 51)">
    <tspan x="0" y="0">통계</tspan>
  </text>
  <g>
    <g>
      <g>
        <rect class="cls-1" x="33.17" y="17.23" width="1.48" height="6.91" rx=".41" ry=".41"
              transform="translate(54.6 -13.22) rotate(90)"/>
        <rect class="cls-1" x="33.54" y="19.36" width=".74" height="6.91" rx=".29" ry=".29"
              transform="translate(56.73 -11.08) rotate(90)"/>
        <rect class="cls-1" x="33.54" y="21.02" width=".74" height="6.91" rx=".29" ry=".29"
              transform="translate(58.39 -9.43) rotate(90)"/>
      </g>
      <g>
        <rect class="cls-1" x="21.3" y="26.92" width="1.9" height="4.58"/>
        <rect class="cls-1" x="24.08" y="28.64" width="1.9" height="2.87"/>
        <rect class="cls-1" x="26.86" y="27.5" width="1.9" height="4.01"/>
        <rect class="cls-1" x="29.61" y="28.64" width="1.9" height="2.87"/>
        <rect class="cls-1" x="35.21" y="28.64" width="1.9" height="2.87"/>
        <rect class="cls-1" x="32.38" y="27.5" width="1.9" height="4.01"/>
      </g>
      <g>
        <path class="cls-1"
              d="M25.28,19.91c-1.61,0-2.91,1.3-2.91,2.91s1.3,2.91,2.91,2.91,2.91-1.3,2.91-2.91h-2.91v-2.91Z"/>
        <path class="cls-1" d="M26.25,19.48v2.41h2.41c0-1.33-1.08-2.41-2.41-2.41Z"/>
      </g>
    </g>
    <path class="cls-1"
          d="M38.71,12.1H19.71c-1.1,0-2,.9-2,2v19c0,1.1,.9,2,2,2h19c1.1,0,2-.9,2-2V14.1c0-1.1-.9-2-2-2Zm-11,2c.55,0,1,.45,1,1s-.45,1-1,1-1-.45-1-1,.45-1,1-1Zm-3,0c.55,0,1,.45,1,1s-.45,1-1,1-1-.45-1-1,.45-1,1-1Zm-3,0c.55,0,1,.45,1,1s-.45,1-1,1-1-.45-1-1,.45-1,1-1Zm17,17.35c0,.91-.74,1.65-1.65,1.65h-15.7c-.91,0-1.65-.74-1.65-1.65v-13.7h19v13.7Z"/>
  </g>
</svg>
