<?xml version="1.0" encoding="utf-8"?>
<!-- Generator: Adobe Illustrator 28.0.0, SVG Export Plug-In . SVG Version: 6.00 Build 0)  -->
<svg version="1.1" id="레이어_1" xmlns="http://www.w3.org/2000/svg" xmlns:xlink="http://www.w3.org/1999/xlink" x="0px"
	 y="0px" viewBox="0 0 58 62" style="enable-background:new 0 0 58 62;" xml:space="preserve" width="58" height="62">
<style type="text/css">
	.st0{fill:transparent;}
	.st1{fill:#ffffff;}
	.st2{font-family:'MalgunGothic','맑은고딕',Verdana, Helvetica, Sans-Serif;}
	.st3{font-size:10px;}
	.st4{fill:none;stroke:#FFFFFF;stroke-width:0.5;stroke-linejoin:round;stroke-miterlimit:10;}
	.st5{opacity:0.5;fill:none;stroke:#FFFFFF;stroke-width:0.5;stroke-miterlimit:10;}
	.st6{opacity:0.5;fill:none;stroke:#FFFFFF;stroke-width:0.5;stroke-linejoin:round;stroke-miterlimit:10;}
   svg:hover .st0{fill:#226cff}
  svg:hover .st1{fill:#ffffff}
</style>
<g>
	<g id="장애현황_00000096760241752964190300000010302749183979811712_">
		<path class="st0" d="M7,0H51c3.8,0,7,3.1,7,7V55c0,3.8-3.1,7-7,7H7c-3.8,0-7-3.1-7-7V7C0,3.1,3.1,0,7,0z"/>
		<text transform="matrix(1 0 0 1 30.1944 52.2332)" text-anchor="middle" class="st1 st2 st3">차트</text>
	</g>
	<polygon class="st1" points="39.3,31 39.3,37.7 18.9,37.7 18.9,31 20.7,30.5 22.1,19.2 23.4,30.1 25.5,31 26.7,30.7 28.3,31.4
		29.9,30.8 31.4,30.6 33.4,30.4 36.1,31 37.1,24.8 38.2,31 	"/>
	<line class="st4" x1="17.6" y1="37.5" x2="40.6" y2="37.5"/>
	<line class="st5" x1="17.6" y1="26" x2="40.6" y2="26"/>
	<line class="st6" x1="17.6" y1="14.5" x2="40.6" y2="14.5"/>
</g>
</svg>
