<?xml version="1.0" encoding="utf-8"?>
<!-- Generator: Adobe Illustrator 28.0.0, SVG Export Plug-In . SVG Version: 6.00 Build 0)  -->
<svg version="1.1" id="레이어_1" xmlns="http://www.w3.org/2000/svg" xmlns:xlink="http://www.w3.org/1999/xlink" x="0px"
	 y="0px" viewBox="0 0 58 62" style="enable-background:new 0 0 58 62;" xml:space="preserve" width="58" height="62">
<style type="text/css">
	.st0{fill:transparent;}
	.st1{fill:#ffffff;}
	.st2{font-family:'MalgunGothic','맑은고딕',Verdana, Helvetica, Sans-Serif;}
	.st3{font-size:10px;}
	.st4{fill:none;stroke:#FFFFFF;stroke-width:0.5;stroke-linejoin:round;stroke-miterlimit:10;}
	.st5{opacity:0.5;fill:none;stroke:#FFFFFF;stroke-width:0.5;stroke-miterlimit:10;}
	.st6{opacity:0.5;fill:none;stroke:#FFFFFF;stroke-width:0.5;stroke-linejoin:round;stroke-miterlimit:10;}
 svg:hover .st0{fill:#226cff}
  svg:hover .st1{fill:#ffffff}
</style>
<g>
	<g id="장애현황_00000183243804819559541640000009267174584132590500_">
		<path class="st0" d="M7,0H51c3.8,0,7,3.1,7,7V55c0,3.8-3.1,7-7,7H7c-3.8,0-7-3.1-7-7V7C0,3.1,3.1,0,7,0z"/>
		<text transform="matrix(1 0 0 1 30.0001 52.2332)" text-anchor="middle" class="st1 st2 st3">차트</text>
	</g>
	<g>
		<rect x="17.5" y="15.9" class="st1" width="6.7" height="3"/>
		<rect x="17.5" y="27.4" class="st1" width="22" height="3"/>
		<rect x="17.5" y="21.7" class="st1" width="19.4" height="3"/>
		<line class="st4" x1="17.7" y1="14.6" x2="17.7" y2="37.6"/>
		<line class="st5" x1="25.5" y1="14.6" x2="25.5" y2="37.6"/>
		<line class="st5" x1="33.5" y1="14.6" x2="33.5" y2="37.6"/>
		<line class="st6" x1="40.7" y1="14.6" x2="40.7" y2="37.6"/>
	</g>
</g>
</svg>
