<?xml version="1.0" encoding="utf-8"?>
<!-- Generator: Adobe Illustrator 28.0.0, SVG Export Plug-In . SVG Version: 6.00 Build 0)  -->
<svg version="1.1" id="레이어_1" xmlns="http://www.w3.org/2000/svg" xmlns:xlink="http://www.w3.org/1999/xlink" x="0px"
	 y="0px" viewBox="0 0 58 62" style="enable-background:new 0 0 58 62;" xml:space="preserve" width="58" height="62">
<style type="text/css">
	.st0{fill:transparent;}
	.st1{fill:#FFFFFF;}
	.st2{font-family:'MalgunGothic','맑은고딕',Verdana, Helvetica, Sans-Serif;}
	.st3{font-size:10px;}
   svg:hover .st0{fill:#226cff}
  svg:hover .st1{fill:#ffffff}
</style>
<g>
	<path class="st0" d="M7,0H51c3.8,0,7,3.1,7,7V55c0,3.8-3.1,7-7,7H7c-3.8,0-7-3.1-7-7V7C0,3.1,3.1,0,7,0z"/>
	<text transform="matrix(1 0 0 1 19.0001 52.2332)" class="st1 st2 st3">차트</text>
	<g>
		<rect x="30.8" y="26.8" class="st1" width="6.7" height="3.8"/>
		<rect x="30.8" y="32" class="st1" width="5.5" height="3.8"/>
		<rect x="30.8" y="16.5" class="st1" width="5.5" height="3.8"/>
		<rect x="30.8" y="21.6" class="st1" width="13.1" height="3.8"/>
		<rect x="20.5" y="26.8" class="st1" width="6.7" height="3.8"/>
		<rect x="21.7" y="32" class="st1" width="5.5" height="3.8"/>
		<rect x="21.7" y="16.5" class="st1" width="5.5" height="3.8"/>
		<rect x="14" y="21.6" class="st1" width="13.1" height="3.8"/>
		<rect x="28.8" y="14.6" class="st1" width="0.5" height="23"/>
	</g>
</g>
</svg>
