<?xml version="1.0" encoding="utf-8"?>
<!-- Generator: Adobe Illustrator 28.0.0, SVG Export Plug-In . SVG Version: 6.00 Build 0)  -->
<svg version="1.1" id="레이어_1" xmlns="http://www.w3.org/2000/svg" xmlns:xlink="http://www.w3.org/1999/xlink" x="0px"
	 y="0px" viewBox="0 0 58 62" style="enable-background:new 0 0 58 62;" xml:space="preserve">
<style type="text/css">
	.st0{fill:transparent;}
	.st1{fill:#FFFFFF;}
	.st2{font-family:'MalgunGothic','맑은고딕',Verdana, Helvetica, Sans-Serif;}
	.st3{font-size:10px;}
	.st4{display:none;fill:#FFFFFF;}
   svg:hover .st0{fill:#226cff}
  svg:hover .st1{fill:#ffffff}
</style>
<g>
	<g id="장애현황_00000160910651205565375150000000489884856673512383_">
		<path class="st0" d="M7,0H51c3.8,0,7,3.1,7,7V55c0,3.8-3.1,7-7,7H7c-3.8,0-7-3.1-7-7V7C0,3.1,3.1,0,7,0z"/>
		<text transform="matrix(1 0 0 1 19.0001 52.2332)" class="st1 st2 st3">차트</text>
	</g>
	<g>
		<rect x="17.5" y="18.9" class="st4" width="8" height="3"/>
		<rect x="26.5" y="18.9" class="st4" width="7" height="3"/>
		<g>
			<rect x="34.5" y="18.9" class="st4" width="5.3" height="3"/>
		</g>
		<rect x="24.9" y="28.4" class="st1" width="4.4" height="4.8"/>
		<rect x="30.6" y="28.4" class="st1" width="1.7" height="4.8"/>
		<rect x="29.4" y="19" class="st1" width="3.7" height="4.8"/>
		<rect x="34.4" y="19" class="st1" width="2.5" height="4.8"/>
		<polygon class="st1" points="17.9,23.8 28,23.8 28,19 17.9,19 17.9,14.6 17.4,14.6 17.4,37.6 17.9,37.6 17.9,33.2 23.7,33.2
			23.7,28.4 17.9,28.4 		"/>
	</g>
</g>
</svg>
