<?xml version="1.0" encoding="utf-8"?>
<!-- Generator: Adobe Illustrator 28.0.0, SVG Export Plug-In . SVG Version: 6.00 Build 0)  -->
<svg version="1.1" id="레이어_1" xmlns="http://www.w3.org/2000/svg" xmlns:xlink="http://www.w3.org/1999/xlink" x="0px"
	 y="0px" viewBox="0 0 58 62" style="enable-background:new 0 0 58 62;" xml:space="preserve">
<style type="text/css">
	.st0{fill:transparent;}
	.st1{fill:#FFFFFF;}
	.st2{font-family:'MalgunGothic','맑은고딕',Verdana, Helvetica, Sans-Serif;}
	.st3{font-size:10px;}
   svg:hover .st0{fill:#226cff}
  svg:hover .st1{fill:#ffffff}
</style>
<g>
	<g id="장애현황_00000041978876886068627240000010094053108149924240_">
		<path class="st0" d="M7,0H51c3.8,0,7,3.1,7,7V55c0,3.8-3.1,7-7,7H7c-3.8,0-7-3.1-7-7V7C0,3.1,3.1,0,7,0z"/>
		<text transform="matrix(1 0 0 1 19.0001 52.2332)" class="st1 st2 st3">차트</text>
	</g>
	<g>
		<polygon class="st1" points="36.1,37.4 36.1,31.5 31.3,31.5 31.3,37.4 26.7,37.4 26.7,27.2 21.9,27.2 21.9,37.4 17.5,37.4
			17.5,37.9 40.5,37.9 40.5,37.4 		"/>
		<rect x="31.3" y="25.8" class="st1" width="4.8" height="4.4"/>
		<rect x="31.3" y="22.9" class="st1" width="4.8" height="1.7"/>
		<rect x="21.9" y="21.6" class="st1" width="4.8" height="4.2"/>
		<rect x="21.9" y="18.2" class="st1" width="4.8" height="2"/>
	</g>
</g>
</svg>
