<?xml version="1.0" encoding="utf-8"?>
<!-- Generator: Adobe Illustrator 28.0.0, SVG Export Plug-In . SVG Version: 6.00 Build 0)  -->
<svg version="1.1" id="레이어_1" xmlns="http://www.w3.org/2000/svg" xmlns:xlink="http://www.w3.org/1999/xlink" x="0px"
	 y="0px" viewBox="0 0 58 62" style="enable-background:new 0 0 58 62;" xml:space="preserve" width="58" height="62">
<style type="text/css">
	.st0{fill:transparent;}
	.st1{fill:#ffffff;}
	.st2{font-family:'MalgunGothic','맑은고딕',Verdana, Helvetica, Sans-Serif;}
	.st3{font-size:10px;}
  svg:hover .st0{fill:#226cff}
  svg:hover .st1{fill:#ffffff}
</style>
<g id="장애현황">
	<path class="st0" d="M7,0H51c3.8,0,7,3.1,7,7V55c0,3.8-3.1,7-7,7H7c-3.8,0-7-3.1-7-7V7C0,3.1,3.1,0,7,0z"/>
	<text transform="matrix(1 0 0 1 9.0001 52.2332)" class="st1 st2 st3">장애현황</text>
	<g id="장애현황_아이콘_00000088096677842399570600000011517697632404028854_">
		<path class="st1" d="M40.5,34.1c0,0.5-0.4,0.9-1,0.9h-21c-0.5,0-1-0.4-1-0.9l0.4-2.7c0-0.5,0.4-0.9,1-0.9h20.2c0.5,0,1,0.4,1,0.9
			L40.5,34.1z"/>
		<path class="st1" d="M37.7,13.8c0-1-0.9-1.8-2-1.8H22.3c-1.1,0-2,0.8-2,1.8l-1,13.5c0,1,0.9,1.8,2,1.8h5.6v-9.8
			c0-0.5,0.4-0.9,1-0.9h2.3c0.5,0,1,0.4,1,0.9v9.8h5.6c1.1,0,2-0.8,2-1.8L37.7,13.8L37.7,13.8z"/>
	</g>
</g>
</svg>
