<?xml version="1.0" encoding="utf-8"?>
<svg version="1.1" id="레이어_1" xmlns="http://www.w3.org/2000/svg"  viewBox="0 0 58 62" style="enable-background:new 0 0 58 62;" >
<style type="text/css">
	.st0{fill:transparent;}
	.st1{fill:#ffffff;}
	.st2{font-family:'MalgunGothic','맑은고딕',Verdana, Helvetica, Sans-Serif;}
	.st3{font-size:10px;}
  svg:hover .st0{fill:#226cff}
  svg:hover .st1{fill:#ffffff}
</style>
<g id="그리드_00000059309006034830209060000003748320079203837074_">
	<path class="st0" d="M7,0H51c3.8,0,7,3.1,7,7V55c0,3.8-3.1,7-7,7H7c-3.8,0-7-3.1-7-7V7C0,3.1,3.1,0,7,0z"/>
	<g>
		<path class="st1" d="M18.7,14.1h3.6c0.7,0,1.2,0.5,1.2,1.2v3.6c0,0.7-0.5,1.2-1.2,1.2h-3.6c-0.7,0-1.2-0.5-1.2-1.2v-3.6
			C17.5,14.7,18,14.1,18.7,14.1z"/>
		<path class="st1" d="M27.4,14.1h11.9c0.7,0,1.2,0.5,1.2,1.2v3.6c0,0.7-0.5,1.2-1.2,1.2H27.4c-0.7,0-1.2-0.5-1.2-1.2v-3.6
			C26.2,14.7,26.7,14.1,27.4,14.1z"/>
		<path class="st1" d="M18.7,22.6h3.6c0.7,0,1.2,0.5,1.2,1.2v3.6c0,0.7-0.5,1.2-1.2,1.2h-3.6c-0.7,0-1.2-0.5-1.2-1.2v-3.6
			C17.5,23.1,18,22.6,18.7,22.6z"/>
		<path class="st1" d="M27.4,22.6h11.9c0.7,0,1.2,0.5,1.2,1.2v3.6c0,0.7-0.5,1.2-1.2,1.2H27.4c-0.7,0-1.2-0.5-1.2-1.2v-3.6
			C26.2,23.1,26.7,22.6,27.4,22.6z"/>
		<path class="st1" d="M18.7,31h3.6c0.7,0,1.2,0.5,1.2,1.2v3.6c0,0.7-0.5,1.2-1.2,1.2h-3.6c-0.7,0-1.2-0.5-1.2-1.2v-3.6
			C17.5,31.5,18,31,18.7,31z"/>
		<path class="st1" d="M27.4,31h11.9c0.7,0,1.2,0.5,1.2,1.2v3.6c0,0.7-0.5,1.2-1.2,1.2H27.4c-0.7,0-1.2-0.5-1.2-1.2v-3.6
			C26.2,31.5,26.7,31,27.4,31z"/>
	</g>
	<text transform="matrix(1 0 0 1 28.9999 53.83)" text-anchor="middle" class="st1 st2 st3">그리드</text>
</g>
</svg>
