<?xml version="1.0" encoding="utf-8"?>
<!-- Generator: Adobe Illustrator 28.0.0, SVG Export Plug-In . SVG Version: 6.00 Build 0)  -->
<svg version="1.1" id="레이어_1" xmlns="http://www.w3.org/2000/svg" xmlns:xlink="http://www.w3.org/1999/xlink" x="0px"
	 y="0px" viewBox="0 0 58 62" style="enable-background:new 0 0 58 62;" xml:space="preserve">
<style type="text/css">
	.st0{fill:transparent;}
	.st1{fill:#ffffff;}
	.st2{font-family:'MalgunGothic','맑은고딕',Verdana, Helvetica, Sans-Serif;}
	.st3{font-size:10px;}
	.st4{fill:none;stroke:#FFFFFF;stroke-width:0.5;stroke-linejoin:round;stroke-miterlimit:10;}
	.st5{opacity:0.5;fill:none;stroke:#FFFFFF;stroke-width:0.5;stroke-miterlimit:10;}
	.st6{opacity:0.5;fill:none;stroke:#FFFFFF;stroke-width:0.5;stroke-linejoin:round;stroke-miterlimit:10;}
	.st7{fill:none;stroke:#FFFFFF;stroke-width:0.5;stroke-linecap:round;stroke-linejoin:round;stroke-miterlimit:10;}
   svg:hover .st0{fill:#226cff}
  svg:hover .st1{fill:#ffffff}
</style>
<g id="촘">
	<g id="장애현황_00000014617693132081281950000012167192447234163078_">
		<path class="st0" d="M7,0H51c3.8,0,7,3.1,7,7V55c0,3.8-3.1,7-7,7H7c-3.8,0-7-3.1-7-7V7C0,3.1,3.1,0,7,0z"/>
		<text transform="matrix(1 0 0 1 30.1944 52.2332)" text-anchor="middle" class="st1 st2 st3">차트</text>
	</g>
	<g>
		<g>
			<line class="st4" x1="17.5" y1="37.6" x2="40.5" y2="37.6"/>
			<line class="st5" x1="17.5" y1="29.8" x2="40.5" y2="29.8"/>
			<line class="st5" x1="17.5" y1="21.8" x2="40.5" y2="21.8"/>
			<line class="st6" x1="17.5" y1="14.6" x2="40.5" y2="14.6"/>
		</g>
		<polyline class="st7" points="18.9,34.1 20.1,34.1 21.2,22.1 22.2,34.1 23.3,34.1 23.9,33.1 24.5,33.7 26,33.7 26.8,34.1
			27.2,32.4 29,34.1 29.7,33.4 31,34.1 31.8,29.9 32.8,34.1 34.3,34.1 35.1,33.4 35.8,34.1 37.7,32.7 38.4,34.1 39.7,34.1 		"/>
	</g>
</g>
</svg>
