<?xml version="1.0" encoding="utf-8"?>
<svg version="1.1" id="레이어_1" xmlns="http://www.w3.org/2000/svg"  viewBox="0 0 58 62" style="enable-background:new 0 0 58 62;"  width="58" height="62" >
<style type="text/css">
	.st0{fill:transparent;}
	.st1{fill:#ffffff;}
	.st2{font-family:'MalgunGothic','맑은고딕',Verdana, Helvetica, Sans-Serif;}
	.st3{font-size:10px}
  svg:hover .st0{fill:#226cff}
  svg:hover .st1{fill:#ffffff}
</style>
<g>
	<g>
		<g id="장애현황_00000126310442541596578330000001235731173071847821_">
			<path class="st0" d="M7,0H51c3.8,0,7,3.1,7,7V55c0,3.8-3.1,7-7,7H7c-3.8,0-7-3.1-7-7V7C0,3.1,3.1,0,7,0z"/>
			<text transform="matrix(1 0 0 1 30.699 52.2332)" text-anchor="middle" class="st1 st2 st3">차트</text>
		</g>
	</g>
	<g>
		<path class="st1" d="M29.7,15.4V26h11C40.3,20.3,35.4,15.8,29.7,15.4z"/>
		<path class="st1" d="M20.7,34.5c2.1,2.3,5.2,3.8,8.6,3.8c6,0,10.8-4.5,11.4-10.3H29.5L20.7,34.5z"/>
		<path class="st1" d="M28.1,15.4c-3.2,0.3-6,2-7.9,4.4l7.9,5.7V15.4z"/>
		<path class="st1" d="M19.1,21.4c-0.9,1.6-1.4,3.4-1.4,5.4c0,2.2,0.6,4.3,1.7,6.1l7.7-5.6L19.1,21.4z"/>
	</g>
</g>
</svg>
