<?xml version="1.0" encoding="utf-8"?>
<svg version="1.1" id="레이어_1" xmlns="http://www.w3.org/2000/svg" xmlns:xlink="http://www.w3.org/1999/xlink" x="0px"
	 y="0px" viewBox="0 0 58 62" style="enable-background:new 0 0 58 62;" xml:space="preserve" width="58" height="62">
<style type="text/css">
	.st0{fill:transparent;}
	.st1{fill:#ffffff;}
	.st2{font-family:'MalgunGothic','맑은고딕',Verdana, Helvetica, Sans-Serif;;}
	.st3{font-size:10px;}
  svg:hover .st0{fill:#226cff}
  svg:hover .st1{fill:#ffffff}
</style>
<g>
	<path class="st0" d="M7,0H51c3.8,0,7,3.1,7,7V55c0,3.8-3.1,7-7,7H7c-3.8,0-7-3.1-7-7V7C0,3.1,3.1,0,7,0z"/>
	<text transform="matrix(1 0 0 1 28.9998 52.2332)" text-anchor="middle" class="st1 st2 st3">차트</text>
	<g>
		<g>
			<circle class="st1" cx="19.3" cy="19.1" r="1.5"/>
		</g>
		<g>
			<circle class="st1" cx="19.3" cy="25.4" r="1.5"/>
		</g>
		<g>
			<circle class="st1" cx="19.3" cy="31.6" r="1.5"/>
		</g>
		<g>
			<path class="st1" d="M32.2,20.4v-2.9c-3.6,0.2-6.4,3-6.9,6.5h2.9C28.6,22.1,30.2,20.7,32.2,20.4z"/>
		</g>
		<g>
			<path class="st1" d="M33.2,17.6v2.9c2.3,0.3,4.2,2.2,4.2,4.6c0,2.6-2.1,4.7-4.7,4.7c-2.6,0-4.7-2.1-4.7-4.7h-2.8
				c0,4.1,3.4,7.5,7.5,7.5c4.1,0,7.5-3.4,7.5-7.5C40.2,21.1,37.1,17.8,33.2,17.6z"/>
		</g>
	</g>
</g>
</svg>
