<?xml version="1.0" encoding="utf-8"?>
<svg version="1.1" id="레이어_1" xmlns="http://www.w3.org/2000/svg" viewBox="0 0 58 62"  style="enable-background:new 0 0 58 62;" width="58" height="62">
<style type="text/css">
	.st0{fill:transparent;}
	.st1{fill:#ffffff;}
	.st2{font-family:'MalgunGothic','맑은고딕',Verdana, Helvetica, Sans-Serif;}
	.st3{font-size:10px;}
</style>
<g>
	<path class="st0" d="M7,0H51c3.8,0,7,3.1,7,7V55c0,3.8-3.1,7-7,7H7c-3.8,0-7-3.1-7-7V7C0,3.1,3.1,0,7,0z"/>
	<path class="st1" d="M39.3,31h-1.1v-2.8c0-1.4-1.1-2.5-2.4-2.5h-5.6v-1.5h2c1.1,0,2-0.9,2-2v-6c0-1.1-0.9-2-2-2h-6
		c-1.1,0-2,0.9-2,2v6c0,1.1,0.9,2,2,2h2v1.5h-5.6c-1.3,0-2.4,1.1-2.4,2.5V31h-1.5c-0.7,0-1.2,0.5-1.2,1.2v3.6c0,0.7,0.5,1.2,1.2,1.2
		h3.6c0.7,0,1.2-0.5,1.2-1.2v-3.6c0-0.7-0.5-1.2-1.2-1.2h-1.1v-2.8c0-0.8,0.6-1.5,1.4-1.5h5.6V31h-0.8c-0.7,0-1.2,0.5-1.2,1.2v3.6
		c0,0.7,0.5,1.2,1.2,1.2H31c0.7,0,1.2-0.5,1.2-1.2v-3.6c0-0.7-0.5-1.2-1.2-1.2h-0.8v-4.3h5.6c0.8,0,1.4,0.7,1.4,1.5V31h-1.5
		c-0.7,0-1.2,0.5-1.2,1.2v3.6c0,0.7,0.5,1.2,1.2,1.2h3.6c0.7,0,1.2-0.5,1.2-1.2v-3.6C40.5,31.5,40,31,39.3,31z"/>
	<text transform="matrix(1 0 0 1 30.0001 53.83)" text-anchor="middle" class="st1 st2 st3">토폴로지</text>
</g>
</svg>
