<?xml version="1.0" encoding="utf-8"?>
<!-- Generator: Adobe Illustrator 24.1.1, SVG Export Plug-In . SVG Version: 6.00 Build 0)  -->
<svg version="1.1" id="레이어_1" xmlns="http://www.w3.org/2000/svg" xmlns:xlink="http://www.w3.org/1999/xlink" x="0px"
	 y="0px" viewBox="0 0 300 80" style="enable-background:new 0 0 300 80;" xml:space="preserve" width="300" height="80">
<style type="text/css">
	.st0{opacity:0.5;}
	.st1{fill:#999999;}
	.st2{opacity:0.2;fill:url(#SVGID_1_);}
	.st3{fill:#F64431;}
	.st4{fill:#FFFFFF;}
	.st5{font-family:'MalgunGothic';}
	.st6{font-size:16px;}
	.st7{font-family:'MalgunGothicBold';}
	.st8{font-size:14px;}
	.st9{opacity:0.2;fill:url(#SVGID_2_);}
	.st10{fill:#FF9A00;}
	.st11{opacity:0.2;fill:url(#SVGID_3_);}
	.st12{fill:#FFCD00;}
	.st13{opacity:0.2;fill:url(#SVGID_4_);}
	.st14{fill:#FFE417;}
	.st15{opacity:0.2;fill:url(#SVGID_5_);}
	.st16{fill:#1428A0;}
</style>
<g>
	<g class="st0">
		<path class="st1" d="M55,1v78H1V1H55 M56,0H0v80h56V0L56,0z"/>
	</g>
	<linearGradient id="SVGID_1_" gradientUnits="userSpaceOnUse" x1="3.0882" y1="7.625" x2="31.4544" y2="44.4893">
		<stop  offset="0" style="stop-color:#FFFFFF;stop-opacity:0.6"/>
		<stop  offset="1" style="stop-color:#000000;stop-opacity:0"/>
	</linearGradient>
	<rect x="2" y="2" class="st2" width="52" height="76"/>
</g>
<g>
	<rect x="1" y="59" class="st3" width="54" height="20"/>
</g>
<g id="Err5Ramp_16_">
	<g>
		<path class="st3" d="M40,31.49v-1.41c0-1.65-1.24-2.99-2.76-2.99H18.76c-1.52,0-2.76,1.34-2.76,2.99v1.41H40z"/>
	</g>
	<g>
		<path class="st3" d="M36.38,10.66c0-1.75-1.09-3.16-2.43-3.16H21.72c-1.34,0-2.42,1.42-2.42,3.16l-0.54,14.97h4.25h2.73v-2.4
			v-7.47c0-0.46,0.3-0.84,0.66-0.84h2.87c0.36,0,0.66,0.38,0.66,0.84v7.47v2.4h4.39h2.59L36.38,10.66z"/>
	</g>
</g>
<text id="Err5Num_20_" transform="matrix(1 0 0 1 23.5933 74.5239)" class="st4 st5 st6">0</text>
<text transform="matrix(1 0 0 1 14.0003 50.5115)" class="st4 st7 st8">장애</text>
<g>
	<g class="st0">
		<path class="st1" d="M116,1v78H62V1H116 M117,0H61v80h56V0L117,0z"/>
	</g>
	<linearGradient id="SVGID_2_" gradientUnits="userSpaceOnUse" x1="64.0882" y1="7.625" x2="92.4544" y2="44.4893">
		<stop  offset="0" style="stop-color:#FFFFFF;stop-opacity:0.6"/>
		<stop  offset="1" style="stop-color:#000000;stop-opacity:0"/>
	</linearGradient>
	<rect x="63" y="2" class="st9" width="52" height="76"/>
</g>
<g>
	<rect x="62" y="59" class="st10" width="54" height="20"/>
</g>
<g id="Err5Ramp_15_">
	<g>
		<path class="st10" d="M101,31.49v-1.41c0-1.65-1.24-2.99-2.76-2.99H79.76c-1.52,0-2.76,1.34-2.76,2.99v1.41H101z"/>
	</g>
	<g>
		<path class="st10" d="M97.38,10.66c0-1.75-1.09-3.16-2.43-3.16H82.72c-1.34,0-2.42,1.42-2.42,3.16l-0.54,14.97h4.25h2.73v-2.4
			v-7.47c0-0.46,0.3-0.84,0.66-0.84h2.87c0.36,0,0.66,0.38,0.66,0.84v7.47v2.4h4.39h2.59L97.38,10.66z"/>
	</g>
</g>
<text id="Err5Num_19_" transform="matrix(1 0 0 1 84.5933 74.5239)" class="st4 st5 st6">0</text>
<text transform="matrix(1 0 0 1 75.0003 50.5115)" class="st4 st7 st8">경보</text>
<g>
	<g class="st0">
		<path class="st1" d="M177,1v78h-54V1H177 M178,0h-56v80h56V0L178,0z"/>
	</g>
	<linearGradient id="SVGID_3_" gradientUnits="userSpaceOnUse" x1="125.0882" y1="7.625" x2="153.4544" y2="44.4893">
		<stop  offset="0" style="stop-color:#FFFFFF;stop-opacity:0.6"/>
		<stop  offset="1" style="stop-color:#000000;stop-opacity:0"/>
	</linearGradient>
	<rect x="124" y="2" class="st11" width="52" height="76"/>
</g>
<g>
	<rect x="123" y="59" class="st12" width="54" height="20"/>
</g>
<g id="Err5Ramp_14_">
	<g>
		<path class="st12" d="M162,31.49v-1.41c0-1.65-1.24-2.99-2.76-2.99h-18.48c-1.52,0-2.76,1.34-2.76,2.99v1.41H162z"/>
	</g>
	<g>
		<path class="st12" d="M158.38,10.66c0-1.75-1.09-3.16-2.43-3.16h-12.23c-1.34,0-2.42,1.42-2.42,3.16l-0.54,14.97h4.25h2.73v-2.4
			v-7.47c0-0.46,0.3-0.84,0.66-0.84h2.87c0.36,0,0.66,0.38,0.66,0.84v7.47v2.4h4.39h2.59L158.38,10.66z"/>
	</g>
</g>
<text id="Err5Num_18_" transform="matrix(1 0 0 1 145.5933 74.5239)" class="st4 st5 st6">0</text>
<text transform="matrix(1 0 0 1 136.0002 50.5115)" class="st4 st7 st8">알람</text>
<g>
	<g class="st0">
		<path class="st1" d="M238,1v78h-54V1H238 M239,0h-56v80h56V0L239,0z"/>
	</g>
	<linearGradient id="SVGID_4_" gradientUnits="userSpaceOnUse" x1="186.0882" y1="7.625" x2="214.4544" y2="44.4893">
		<stop  offset="0" style="stop-color:#FFFFFF;stop-opacity:0.6"/>
		<stop  offset="1" style="stop-color:#000000;stop-opacity:0"/>
	</linearGradient>
	<rect x="185" y="2" class="st13" width="52" height="76"/>
</g>
<g>
	<rect x="184" y="59" class="st14" width="54" height="20"/>
</g>
<g id="Err5Ramp_13_">
	<g>
		<path class="st14" d="M223,31.49v-1.41c0-1.65-1.24-2.99-2.76-2.99h-18.48c-1.52,0-2.76,1.34-2.76,2.99v1.41H223z"/>
	</g>
	<g>
		<path class="st14" d="M219.38,10.66c0-1.75-1.09-3.16-2.43-3.16h-12.23c-1.34,0-2.42,1.42-2.42,3.16l-0.54,14.97h4.25h2.73v-2.4
			v-7.47c0-0.46,0.3-0.84,0.66-0.84h2.87c0.36,0,0.66,0.38,0.66,0.84v7.47v2.4h4.39h2.59L219.38,10.66z"/>
	</g>
</g>
<text id="Err5Num_17_" transform="matrix(1 0 0 1 206.5933 74.5239)" class="st4 st5 st6">2</text>
<text transform="matrix(1 0 0 1 197.0003 50.5115)" class="st4 st7 st8">주의</text>
<g>
	<g class="st0">
		<path class="st1" d="M299,1v78h-54V1H299 M300,0h-56v80h56V0L300,0z"/>
	</g>
	<linearGradient id="SVGID_5_" gradientUnits="userSpaceOnUse" x1="247.0882" y1="7.625" x2="275.4544" y2="44.4893">
		<stop  offset="0" style="stop-color:#FFFFFF;stop-opacity:0.6"/>
		<stop  offset="1" style="stop-color:#000000;stop-opacity:0"/>
	</linearGradient>
	<rect x="246" y="2" class="st15" width="52" height="76"/>
</g>
<g>
	<rect x="245" y="59" class="st16" width="54" height="20"/>
</g>
<g id="Err5Ramp_7_">
	<g>
		<path class="st16" d="M284,31.49v-1.41c0-1.65-1.24-2.99-2.76-2.99h-18.48c-1.52,0-2.76,1.34-2.76,2.99v1.41H284z"/>
	</g>
	<g>
		<path class="st16" d="M280.38,10.66c0-1.75-1.09-3.16-2.43-3.16h-12.23c-1.34,0-2.42,1.42-2.42,3.16l-0.54,14.97h4.25h2.73v-2.4
			v-7.47c0-0.46,0.3-0.84,0.66-0.84h2.87c0.36,0,0.66,0.38,0.66,0.84v7.47v2.4h4.39h2.59L280.38,10.66z"/>
	</g>
</g>
<text id="Err5Num_11_" transform="matrix(1 0 0 1 267.5933 74.5239)" class="st4 st5 st6">0</text>
<text transform="matrix(1 0 0 1 258.0003 50.5115)" class="st4 st7 st8">정보</text>
</svg>
