<?xml version="1.0" encoding="utf-8"?>
<!-- Generator: Adobe Illustrator 27.4.1, SVG Export Plug-In . SVG Version: 6.00 Build 0)  -->
<svg version="1.1" id="레이어_1" xmlns="http://www.w3.org/2000/svg" xmlns:xlink="http://www.w3.org/1999/xlink" x="0px"
	 y="0px" viewBox="0 0 30 30" style="enable-background:new 0 0 30 30;" xml:space="preserve" width="30" height="30">
<style type="text/css">
	.st0{fill:none;}
	.st1{fill:#010101;}
</style>
<g>
	<rect x="7.2" y="7" class="st0" width="11" height="12"/>
	<path class="st1" d="M21.9,8.2h-1.6V7c0-1.1-0.9-2-2-2h-11c-1.1,0-2,0.9-2,2v12c0,1.1,0.9,2,2,2h11c1.1,0,2-0.9,2-2v-8.9h1.6
		c0.5,0,0.9,0.3,0.9,0.6v11.5c0,0.3-0.4,0.6-0.9,0.6H11.5c-0.5,0-0.9-0.3-0.9-0.6v-1.2h-2v1.2c0,1.5,1.3,2.6,2.9,2.6h10.3
		c1.6,0,2.9-1.2,2.9-2.6V10.8C24.8,9.4,23.5,8.2,21.9,8.2z M18.2,19.1h-11V7h11V19.1z"/>
</g>
</svg>
