<?xml version="1.0" encoding="utf-8"?>
<!-- Generator: Adobe Illustrator 16.0.0, SVG Export Plug-In . SVG Version: 6.00 Build 0)  -->
<!DOCTYPE svg PUBLIC "-//W3C//DTD SVG 1.1//EN" "http://www.w3.org/Graphics/SVG/1.1/DTD/svg11.dtd">
<svg version="1.1" id="Layer_1" xmlns="http://www.w3.org/2000/svg" xmlns:xlink="http://www.w3.org/1999/xlink" x="0px" y="0px"
	 width="20px" height="20px" viewBox="0 0 20 20" enable-background="new 0 0 20 20" xml:space="preserve">
<g>
	<path fill="#63e7ff" d="M20,19.212C20,19.646,19.618,20,19.147,20H0.853C0.381,20,0,19.646,0,19.212l0.341-2.308
		c0-0.434,0.381-0.787,0.852-0.787h17.612c0.472,0,0.854,0.354,0.854,0.787L20,19.212z"/>
	<g>
		<path fill="#63e7ff" d="M17.556,1.572C17.556,0.705,16.793,0,15.853,0H4.147c-0.94,0-1.703,0.705-1.703,1.572L1.591,13.312
			c0,0.87,0.763,1.575,1.705,1.575h4.829V6.343c0-0.435,0.382-0.788,0.854-0.788h2.043c0.472,0,0.854,0.353,0.854,0.788v8.544h4.83
			c0.94,0,1.704-0.705,1.704-1.575L17.556,1.572z"/>
	</g>
</g>
</svg>
