<?xml version="1.0" encoding="utf-8"?>
<!-- Generator: Adobe Illustrator 16.0.0, SVG Export Plug-In . SVG Version: 6.00 Build 0)  -->
<!DOCTYPE svg PUBLIC "-//W3C//DTD SVG 1.1//EN" "http://www.w3.org/Graphics/SVG/1.1/DTD/svg11.dtd">
<svg version="1.1" id="Layer_1" xmlns="http://www.w3.org/2000/svg" xmlns:xlink="http://www.w3.org/1999/xlink" x="0px" y="0px"
	 width="21px" height="21px" viewBox="0 0 21 21" enable-background="new 0 0 21 21" xml:space="preserve">
<path fill="#63e7ff" d="M5.626,20.164C5.626,20.626,5.245,21,4.775,21H0.859c-0.469,0-0.85-0.374-0.85-0.836v-4.678
	c0-0.46,0.38-0.835,0.85-0.835h3.916c0.47,0,0.851,0.375,0.851,0.835V20.164z"/>
<path fill="#63e7ff" d="M12.679,20.164c0,0.462-0.381,0.836-0.851,0.836H7.915c-0.47,0-0.851-0.374-0.851-0.836v-8.113
	c0-0.462,0.38-0.834,0.851-0.834h3.914c0.47,0,0.851,0.372,0.851,0.834V20.164z"/>
<path fill="#63e7ff" d="M19.731,20.164c0,0.462-0.379,0.836-0.849,0.836h-3.916c-0.468,0-0.85-0.374-0.85-0.836V7.143
	c0-0.461,0.382-0.836,0.85-0.836h3.916c0.47,0,0.849,0.375,0.849,0.836V20.164z"/>
<path fill="#63e7ff" d="M20.795,1.378l-4.054,3.817l-2.576-2.077L9.397,8.05L6.757,7.268l-5.396,3.97
	c-0.153,0.113-0.332,0.167-0.508,0.167c-0.26,0-0.515-0.115-0.683-0.335c-0.282-0.369-0.205-0.892,0.171-1.169l6.084-4.477
	l2.461,0.729l5.134-5.313l2.512,2.024l2.972-2.573c0.307-0.351,0.843-0.39,1.197-0.091C21.06,0.5,21.102,1.027,20.795,1.378"/>
</svg>
