<?xml version="1.0" encoding="utf-8"?>
<!-- Generator: Adobe Illustrator 16.0.0, SVG Export Plug-In . SVG Version: 6.00 Build 0)  -->
<!DOCTYPE svg PUBLIC "-//W3C//DTD SVG 1.1//EN" "http://www.w3.org/Graphics/SVG/1.1/DTD/svg11.dtd">
<svg version="1.1" id="Layer_1" xmlns="http://www.w3.org/2000/svg" xmlns:xlink="http://www.w3.org/1999/xlink" x="0px" y="0px"
	 width="20px" height="22px" viewBox="0 0 20 22" enable-background="new 0 0 20 22" xml:space="preserve">
<g>
	<g>
		<rect x="2.088" y="19.31" fill="#63e7ff" width="1.678" height="2.69"/>
		<rect x="4.917" y="19.31" fill="#63e7ff" width="1.679" height="2.69"/>
		<rect x="7.747" y="19.31" fill="#63e7ff" width="1.678" height="2.69"/>
		<rect x="10.576" y="19.31" fill="#63e7ff" width="1.678" height="2.69"/>
	</g>
	<g>
		<rect x="13.405" y="19.31" fill="#63e7ff" width="1.678" height="2.69"/>
		<rect x="16.234" y="19.31" fill="#63e7ff" width="1.679" height="2.69"/>
	</g>
</g>
<g>
	<path fill="#63e7ff" d="M17.738,11.533v1.263H2.261v-1.263H0v7.021h20v-7.021H17.738z M17.765,17.149H2.234v-3.362h15.53V17.149z"
		/>
	<rect x="3.243" y="14.552" fill="#63e7ff" width="13.515" height="1.833"/>
</g>
<g>
	<g>
		<rect x="16.234" fill="#63e7ff" width="1.679" height="2.69"/>
		<rect x="13.405" fill="#63e7ff" width="1.678" height="2.69"/>
		<rect x="10.576" fill="#63e7ff" width="1.678" height="2.69"/>
		<rect x="7.747" fill="#63e7ff" width="1.678" height="2.69"/>
	</g>
	<g>
		<rect x="4.917" fill="#63e7ff" width="1.678" height="2.69"/>
		<rect x="2.088" fill="#63e7ff" width="1.678" height="2.69"/>
	</g>
</g>
<g>
	<path fill="#63e7ff" d="M2.261,10.466V9.204h15.477v1.262H20V3.446H0v7.021H2.261z M2.234,4.851h15.53v3.361H2.234V4.851z"/>
	<rect x="3.243" y="5.615" fill="#63e7ff" width="13.515" height="1.833"/>
</g>
</svg>
