<?xml version="1.0" encoding="utf-8"?>
<!-- Generator: Adobe Illustrator 16.0.0, SVG Export Plug-In . SVG Version: 6.00 Build 0)  -->
<!DOCTYPE svg PUBLIC "-//W3C//DTD SVG 1.1//EN" "http://www.w3.org/Graphics/SVG/1.1/DTD/svg11.dtd">
<svg version="1.1" id="Icon" xmlns="http://www.w3.org/2000/svg" xmlns:xlink="http://www.w3.org/1999/xlink" x="0px" y="0px"
	 width="30px" height="30px" viewBox="0 0 30 30" enable-background="new 0 0 30 30" xml:space="preserve">
<g>
	<g>
		<path fill="#010101" d="M18.199,25h-6.398l-0.148-2.612c-0.533-0.237-1.037-0.529-1.507-0.873l-2.416,1.189l-3.22-5.428
			l2.349-1.494c-0.027-0.265-0.04-0.524-0.04-0.782s0.014-0.518,0.04-0.782L4.51,12.721l3.22-5.426l2.417,1.189
			c0.47-0.344,0.974-0.635,1.506-0.872L11.801,5h6.398l0.147,2.611c0.532,0.236,1.035,0.528,1.506,0.873l2.416-1.19l3.22,5.427
			l-2.347,1.495c0.028,0.269,0.042,0.528,0.042,0.784s-0.014,0.515-0.042,0.782l2.349,1.495l-3.219,5.427l-2.417-1.189
			c-0.471,0.345-0.975,0.637-1.508,0.873L18.199,25z M13.69,23h2.618l0.115-2.029l0.632-0.221c0.743-0.26,1.422-0.652,2.017-1.168
			l0.502-0.435l1.92,0.945l1.287-2.169l-1.824-1.162l0.119-0.661c0.072-0.397,0.107-0.757,0.107-1.101s-0.035-0.704-0.107-1.103
			l-0.119-0.66l1.822-1.162l-1.286-2.17l-1.921,0.946l-0.502-0.435C18.475,9.9,17.797,9.508,17.057,9.25l-0.633-0.22L16.309,7H13.69
			l-0.115,2.031l-0.631,0.22c-0.744,0.26-1.423,0.652-2.017,1.166l-0.501,0.434L8.506,9.906l-1.287,2.169l1.826,1.163l-0.121,0.663
			C8.853,14.289,8.818,14.648,8.818,15s0.034,0.712,0.105,1.099l0.121,0.663l-1.826,1.161l1.287,2.17l1.92-0.945l0.502,0.435
			c0.593,0.515,1.271,0.907,2.017,1.167l0.631,0.221L13.69,23z"/>
	</g>
	<g>
		<path fill="#010101" d="M15,19.155c-2.31,0-4.189-1.864-4.189-4.155s1.88-4.155,4.189-4.155c2.311,0,4.19,1.864,4.19,4.155
			S17.311,19.155,15,19.155z M15,12.845c-1.207,0-2.189,0.967-2.189,2.155s0.982,2.155,2.189,2.155c1.208,0,2.19-0.967,2.19-2.155
			S16.208,12.845,15,12.845z"/>
	</g>
</g>
</svg>
