<?xml version="1.0" encoding="utf-8"?>
<!-- Generator: Adobe Illustrator 16.0.0, SVG Export Plug-In . SVG Version: 6.00 Build 0)  -->
<!DOCTYPE svg PUBLIC "-//W3C//DTD SVG 1.1//EN" "http://www.w3.org/Graphics/SVG/1.1/DTD/svg11.dtd">
<svg version="1.1" id="Layer_4" xmlns="http://www.w3.org/2000/svg" xmlns:xlink="http://www.w3.org/1999/xlink" x="0px" y="0px"
	 width="20px" height="20px" viewBox="0 0 20 20" enable-background="new 0 0 20 20" xml:space="preserve">
<g>
	<path fill="#63e7ff" d="M10,6.935c-4.119,0-8-0.524-8-1.172v3.885c0,0.648,3.881,1.174,8,1.174c4.121,0,8-0.526,8-1.174V5.763
		C18,6.411,14.121,6.935,10,6.935z"/>
	<path fill="#63e7ff" d="M10,11.523c-4.119,0-8-0.523-8-1.171v3.887c0,0.647,3.881,1.172,8,1.172c4.121,0,8-0.524,8-1.172v-3.887
		C18,11,14.121,11.523,10,11.523z"/>
	<path fill="#63e7ff" d="M10,16.114c-4.119,0-8-0.524-8-1.172v3.885C2,19.477,5.881,20,10,20c4.121,0,8-0.523,8-1.173v-3.885
		C18,15.59,14.121,16.114,10,16.114z"/>
</g>
<path fill="#63e7ff" d="M10,0C5.881,0,2,0.524,2,1.173v3.886c0,0.648,3.881,1.172,8,1.172c4.121,0,8-0.524,8-1.172V1.173
	C18,0.524,14.121,0,10,0z M10,0.782c1.373,0,3.029,0.175,3.029,0.391S11.373,1.564,10,1.564S6.973,1.388,6.973,1.173
	S8.627,0.782,10,0.782z"/>
</svg>
