<?xml version="1.0" encoding="utf-8"?>
<!-- Generator: Adobe Illustrator 16.0.0, SVG Export Plug-In . SVG Version: 6.00 Build 0)  -->
<!DOCTYPE svg PUBLIC "-//W3C//DTD SVG 1.1//EN" "http://www.w3.org/Graphics/SVG/1.1/DTD/svg11.dtd">
<svg version="1.1" id="Setting" xmlns="http://www.w3.org/2000/svg" xmlns:xlink="http://www.w3.org/1999/xlink" x="0px" y="0px"
	 width="23px" height="22px" viewBox="0 0 23 22" enable-background="new 0 0 23 22" xml:space="preserve">
<g id="_x3C_Group_x3E__15_">
	<path fill="#2f8dde" d="M19.837,8.477l-0.58-1.348c0,0,1.35-2.978,1.231-3.091l-1.789-1.706c-0.123-0.117-3.171,1.243-3.171,1.243
		l-1.407-0.555c0,0-1.242-3.019-1.412-3.019h-2.525c-0.175,0-1.325,3.025-1.325,3.025L7.455,3.582c0,0-3.113-1.292-3.232-1.177
		L2.438,4.113C2.314,4.23,3.736,7.147,3.736,7.147L3.155,8.494c0,0-3.155,1.187-3.155,1.348v2.417c0,0.169,3.163,1.27,3.163,1.27
		l0.581,1.343c0,0-1.351,2.978-1.232,3.091l1.787,1.71c0.121,0.115,3.171-1.245,3.171-1.245l1.407,0.559
		c0,0,1.243,3.016,1.414,3.016h2.523c0.175,0,1.325-3.024,1.325-3.024l1.409-0.558c0,0,3.106,1.293,3.228,1.18l1.787-1.708
		c0.125-0.12-1.3-3.034-1.3-3.034l0.579-1.348c0,0,3.157-1.188,3.157-1.351V9.742C23,9.575,19.837,8.477,19.837,8.477z M15.187,11
		c0,1.945-1.654,3.526-3.687,3.526c-2.031,0-3.688-1.581-3.688-3.526c0-1.943,1.656-3.523,3.688-3.523
		C13.532,7.477,15.187,9.057,15.187,11z"/>
</g>
</svg>
