<?xml version="1.0" encoding="UTF-8"?>
<svg id="_이어_1" xmlns="http://www.w3.org/2000/svg" viewBox="-3 0 28 22" width="28" height="22">
  <defs>
    <style>.cls-1{fill:#2f8dde;}.cls-2{stroke:#2f8dde;stroke-linecap:square;stroke-miterlimit:10;stroke-width:2px;}.cls-2,.cls-3{fill:none;}</style>
  </defs>
  <rect class="cls-3" x="0" width="23" height="22"/>
  <g id="_Group_">
    <path class="cls-1" d="M20.9,5.62l-.38-.89s.89-1.97,.82-2.05l-1.19-1.13c-.08-.08-2.1,.82-2.1,.82l-.93-.37s-.82-2-.94-2h-1.67c-.12,0-.88,2-.88,2l-.93,.37s-2.06-.86-2.14-.78l-1.18,1.13c-.08,.08,.86,2.01,.86,2.01l-.38,.89s-2.09,.79-2.09,.89v1.6c0,.11,2.1,.84,2.1,.84l.38,.89s-.9,1.97-.82,2.05l1.18,1.13c.08,.08,2.1-.82,2.1-.82l.93,.37s.82,2,.94,2h1.67c.12,0,.88-2,.88-2l.93-.37s2.06,.86,2.14,.78l1.18-1.13c.08-.08-.86-2.01-.86-2.01l.38-.89s2.09-.79,2.09-.9v-1.6c0-.11-2.1-.84-2.1-.84Zm-3.08,1.67c0,1.29-1.1,2.34-2.44,2.34s-2.44-1.05-2.44-2.34,1.1-2.33,2.44-2.33,2.44,1.05,2.44,2.33Z"/>
  </g>
  <path class="cls-2" d="M22,16.23v1.77c0,1.65-1.35,3-3,3H4c-1.65,0-3-1.35-3-3V4c0-1.65,1.35-3,3-3h2.57"/>
</svg>
