<?xml version="1.0" encoding="utf-8"?>
<!-- Generator: Adobe Illustrator 16.0.0, SVG Export Plug-In . SVG Version: 6.00 Build 0)  -->
<!DOCTYPE svg PUBLIC "-//W3C//DTD SVG 1.1//EN" "http://www.w3.org/Graphics/SVG/1.1/DTD/svg11.dtd">
<svg version="1.1" id="Max" xmlns="http://www.w3.org/2000/svg" xmlns:xlink="http://www.w3.org/1999/xlink" x="0px" y="0px"
	 width="23px" height="22px" viewBox="0 0 23 22" enable-background="new 0 0 23 22" xml:space="preserve">
<g>
	<path fill="#2f8dde" d="M23,15.34c0-0.695-0.54-1.258-1.209-1.258c-0.665,0-1.21,0.563-1.21,1.258v2.605L15.7,13.119
		c-0.472-0.469-1.236-0.469-1.708,0c-0.472,0.467-0.472,1.225,0,1.691l4.856,4.799h-2.624c-0.713,0.002-1.289,0.537-1.289,1.195
		c0,0.66,0.576,1.195,1.289,1.195h5.484c0.714,0,1.289-0.535,1.291-1.195c-0.002-0.018-0.005-0.031-0.006-0.049
		C22.995,20.734,23,20.711,23,20.686V15.34z"/>
	<path fill="#2f8dde" d="M7.3,13.119l-4.88,4.826V15.34c0-0.695-0.544-1.258-1.209-1.258c-0.67,0-1.209,0.563-1.209,1.258L0,20.686
		c0,0.025,0.007,0.049,0.008,0.07c-0.001,0.018-0.005,0.031-0.006,0.049C0.003,21.465,0.579,22,1.292,22h5.484
		c0.712,0,1.29-0.535,1.29-1.195c0-0.658-0.578-1.193-1.29-1.195H4.153l4.857-4.799c0.47-0.467,0.47-1.225,0-1.691
		C8.537,12.65,7.772,12.65,7.3,13.119z"/>
	<path fill="#2f8dde" d="M15.7,8.88l4.881-4.823v2.604c0,0.694,0.545,1.256,1.21,1.258C22.46,7.919,23,7.355,23,6.661V1.313
		c0-0.023-0.005-0.046-0.006-0.069C22.995,1.229,22.998,1.212,23,1.195C22.998,0.534,22.423,0,21.709,0h-5.484
		c-0.713,0-1.289,0.534-1.289,1.195c0,0.66,0.576,1.194,1.289,1.196h2.624l-4.856,4.8c-0.472,0.466-0.472,1.222,0,1.689
		C14.464,9.348,15.229,9.348,15.7,8.88z"/>
	<path fill="#2f8dde" d="M4.153,2.391h2.623c0.712-0.001,1.29-0.536,1.29-1.196C8.066,0.534,7.488,0,6.776,0H1.292
		c-0.713,0-1.289,0.534-1.29,1.195c0.001,0.017,0.005,0.033,0.006,0.049C0.007,1.267,0,1.29,0,1.313l0.002,5.348
		c0,0.694,0.539,1.258,1.209,1.258C1.876,7.917,2.42,7.355,2.42,6.661V4.057L7.3,8.88c0.473,0.468,1.237,0.468,1.711,0
		c0.47-0.467,0.47-1.223,0-1.689L4.153,2.391z"/>
</g>
</svg>
