<?xml version="1.0" encoding="utf-8"?>
<!-- Generator: Adobe Illustrator 16.0.0, SVG Export Plug-In . SVG Version: 6.00 Build 0)  -->
<!DOCTYPE svg PUBLIC "-//W3C//DTD SVG 1.1//EN" "http://www.w3.org/Graphics/SVG/1.1/DTD/svg11.dtd">
<svg version="1.1" xmlns="http://www.w3.org/2000/svg" xmlns:xlink="http://www.w3.org/1999/xlink" x="0px" y="0px" width="25px"
	 height="20px" viewBox="0 0 25 20" enable-background="new 0 0 25 20" xml:space="preserve">
<g id="volumn">
	<g>
		<path fill="none" d="M22.323,19.612c0.331,0.255,0.715,0.38,1.078,0.38c0.414,0,0.8-0.163,1.048-0.483
			c0.465-0.601,0.266-1.532-0.441-2.078l-1.651-1.274c-0.448,0.786-0.992,1.531-1.625,2.228L22.323,19.612z"/>
		<path fill="none" d="M6.958,4.277L2.393,0.755C2.061,0.499,1.675,0.373,1.312,0.373c-0.413,0-0.797,0.163-1.044,0.482
			C-0.197,1.458,0,2.388,0.708,2.935l3.741,2.886h0.399L6.958,4.277z"/>
		<path fill="none" d="M17.587,12.477l-4.129-3.185c0,1.171,0,2.353,0,3.481l2.568,1.981c0.048-0.101,0.105-0.197,0.19-0.28
			C16.82,13.883,17.273,13.202,17.587,12.477z"/>
		<path fill="none" d="M19.166,13.695c-0.394,0.771-0.911,1.496-1.565,2.139c-0.028,0.027-0.064,0.038-0.095,0.062l1.682,1.297
			c0.645-0.691,1.191-1.438,1.616-2.233L19.166,13.695z"/>
		<path fill="#2f8dde" d="M1,5.821v8.409h3.848l7.274,5.292c0,0,1.336,1.097,1.336-0.036c0-0.389,0-2.631,0-5.451L2.812,5.821H1z"/>
		<path fill="#2f8dde" d="M6.958,4.277l-2.11,1.544H4.449l9.009,6.951c0-1.128,0-2.31,0-3.481L6.958,4.277z"/>
		<path fill="#2f8dde" d="M13.458,0.4c0-0.889-1.176-0.021-1.176-0.021L7.798,3.662l5.66,4.366
			C13.458,4.228,13.458,0.845,13.458,0.4z"/>
		<path fill="#2f8dde" d="M20.06,10.001c0.001-2.106-0.821-4.215-2.459-5.821c-0.383-0.374-1.001-0.374-1.384,0
			c-0.383,0.376-0.383,0.985,0,1.357c1.26,1.238,1.883,2.845,1.886,4.464c-0.001,0.494-0.066,0.987-0.183,1.47l1.652,1.274
			C19.892,11.857,20.06,10.93,20.06,10.001z"/>
		<path fill="#2f8dde" d="M19.166,13.695l-1.579-1.219c-0.313,0.726-0.767,1.406-1.37,1.997c-0.085,0.083-0.143,0.18-0.19,0.28
			l1.479,1.142c0.03-0.023,0.066-0.034,0.095-0.062C18.255,15.191,18.772,14.466,19.166,13.695z"/>
		<path fill="#2f8dde" d="M19.188,17.192l1.544,1.191c0.633-0.696,1.177-1.441,1.625-2.228l-1.553-1.197
			C20.379,15.754,19.832,16.501,19.188,17.192z"/>
		<path fill="#2f8dde" d="M24,10.011c0-3.204-1.258-6.412-3.743-8.855c-0.387-0.376-1.005-0.376-1.39,0
			c-0.379,0.377-0.379,0.984,0,1.361c2.113,2.074,3.172,4.777,3.172,7.494c0,1.369-0.266,2.736-0.798,4.021l1.581,1.22
			C23.598,13.59,24,11.802,24,10.011z"/>
		<path fill="#2f8dde" d="M18.867,18.9c0.192,0.184,0.444,0.278,0.695,0.278c0.146,0,0.289-0.042,0.425-0.105l-1.366-1.054
			C18.555,18.327,18.625,18.659,18.867,18.9z"/>
		<path fill="#2f8dde" d="M15.961,16.197c0.192,0.184,0.444,0.278,0.695,0.278c0.146,0,0.289-0.042,0.425-0.105l-1.366-1.054
			C15.648,15.624,15.719,15.956,15.961,16.197z"/>
	</g>
</g>
<g id="Mute">
	<path fill="#ED0F24" d="M24.008,17.431c0.707,0.546,0.906,1.478,0.441,2.078l0,0c-0.466,0.603-1.419,0.647-2.126,0.104L0.708,2.935
		C0,2.388-0.197,1.458,0.267,0.855l0,0c0.465-0.602,1.417-0.647,2.125-0.1L24.008,17.431z"/>
</g>
</svg>
