<?xml version="1.0" encoding="utf-8"?>
<!-- Generator: Adobe Illustrator 16.0.0, SVG Export Plug-In . SVG Version: 6.00 Build 0)  -->
<!DOCTYPE svg PUBLIC "-//W3C//DTD SVG 1.1//EN" "http://www.w3.org/Graphics/SVG/1.1/DTD/svg11.dtd">
<svg version="1.1" id="Layer_1" xmlns="http://www.w3.org/2000/svg" xmlns:xlink="http://www.w3.org/1999/xlink" x="0px" y="0px"
	 width="22px" height="22px" viewBox="0 0 22 22" enable-background="new 0 0 22 22" xml:space="preserve">
<g>
	<path fill="#2f8dde" d="M10.891,2.645c3.064,0,5.683,1.854,6.744,4.471l0.05,0.128h-1.788l3.052,2.974L22,7.244h-1.559L20.416,7.13
		C19.274,3.022,15.42,0,10.842,0C5.364,0,0.924,4.323,0.924,9.661c1.199,0,2.717,0.046,2.717,0.046
		C3.642,5.808,6.887,2.645,10.891,2.645z"/>
	<path fill="#2f8dde" d="M11.109,19.354c-3.064,0-5.686-1.854-6.744-4.472l-0.052-0.129h1.788l-3.05-2.973L0,14.754h1.559
		l0.025,0.116C2.724,18.979,6.578,22,11.158,22c5.476,0,9.917-4.325,9.917-9.662c-1.2,0-2.719-0.047-2.719-0.047
		C18.356,16.192,15.113,19.354,11.109,19.354z"/>
</g>
</svg>
