<?xml version="1.0" encoding="utf-8"?>
<!-- Generator: Adobe Illustrator 16.0.0, SVG Export Plug-In . SVG Version: 6.00 Build 0)  -->
<!DOCTYPE svg PUBLIC "-//W3C//DTD SVG 1.1//EN" "http://www.w3.org/Graphics/SVG/1.1/DTD/svg11.dtd">
<svg version="1.1" id="Layer_1" xmlns="http://www.w3.org/2000/svg" xmlns:xlink="http://www.w3.org/1999/xlink" x="0px" y="0px"
	 width="22px" height="22px" viewBox="0 0 22 22" enable-background="new 0 0 22 22" xml:space="preserve">
<g>
	<rect x="5.995" fill="#ffffff" width="1.652" height="2.69"/>
	<rect x="8.782" fill="#ffffff" width="1.65" height="2.69"/>
	<rect x="11.568" fill="#ffffff" width="1.65" height="2.69"/>
	<rect x="14.352" fill="#ffffff" width="1.652" height="2.69"/>
</g>
<g>
	<rect x="5.995" y="19.309" fill="#ffffff" width="1.652" height="2.691"/>
	<rect x="8.782" y="19.309" fill="#ffffff" width="1.65" height="2.691"/>
	<rect x="11.568" y="19.309" fill="#ffffff" width="1.65" height="2.691"/>
	<rect x="14.352" y="19.309" fill="#ffffff" width="1.652" height="2.691"/>
</g>
<g>
	<rect y="14.353" fill="#ffffff" width="2.69" height="1.653"/>
	<rect y="11.568" fill="#ffffff" width="2.69" height="1.651"/>
	<rect y="8.782" fill="#ffffff" width="2.69" height="1.651"/>
	<rect y="5.996" fill="#ffffff" width="2.69" height="1.652"/>
</g>
<g>
	<rect x="19.309" y="14.353" fill="#ffffff" width="2.691" height="1.653"/>
	<rect x="19.309" y="11.568" fill="#ffffff" width="2.691" height="1.651"/>
	<rect x="19.309" y="8.782" fill="#ffffff" width="2.691" height="1.651"/>
	<rect x="19.309" y="5.996" fill="#ffffff" width="2.691" height="1.652"/>
</g>
<path fill="#ffffff" d="M3.445,3.445v15.108h15.109V3.445H3.445z M15.768,15.768H6.232V6.232h9.536V15.768z"/>
<rect x="8.214" y="8.215" fill="#ffffff" width="5.571" height="5.569"/>
</svg>
