<?xml version="1.0" encoding="utf-8"?>
<!-- Generator: Adobe Illustrator 16.0.0, SVG Export Plug-In . SVG Version: 6.00 Build 0)  -->
<!DOCTYPE svg PUBLIC "-//W3C//DTD SVG 1.1//EN" "http://www.w3.org/Graphics/SVG/1.1/DTD/svg11.dtd">
<svg version="1.1" id="volumn" xmlns="http://www.w3.org/2000/svg" xmlns:xlink="http://www.w3.org/1999/xlink" x="0px" y="0px"
	 width="23px" height="20px" viewBox="0 0 23 20" enable-background="new 0 0 23 20" xml:space="preserve">
<g>
	<path fill="#FFFFFF" d="M3.848,5.821H0v8.409h3.848l7.274,5.292c0,0,1.336,1.097,1.336-0.036c0-1.135,0-18.053,0-19.086
		c0-0.889-1.176-0.021-1.176-0.021L3.848,5.821z"/>
	<path fill="#FFFFFF" d="M16.601,4.18c-0.383-0.374-1.001-0.374-1.384,0c-0.383,0.376-0.383,0.985,0,1.357
		c1.26,1.238,1.883,2.845,1.886,4.464c-0.003,1.623-0.626,3.239-1.886,4.473c-0.383,0.374-0.383,0.984,0,1.36
		c0.191,0.189,0.44,0.279,0.694,0.279c0.25,0,0.498-0.09,0.689-0.279c1.64-1.61,2.46-3.727,2.459-5.833
		C19.061,7.895,18.238,5.786,16.601,4.18z"/>
	<path fill="#FFFFFF" d="M19.257,1.155c-0.387-0.376-1.005-0.376-1.39,0c-0.379,0.377-0.379,0.984,0,1.361
		c2.113,2.074,3.172,4.777,3.172,7.494c0,2.728-1.052,5.447-3.172,7.529c-0.382,0.375-0.379,0.982,0,1.36
		c0.192,0.184,0.444,0.278,0.695,0.278s0.503-0.095,0.694-0.278C21.752,16.443,23,13.223,23,10.011
		C23,6.807,21.742,3.599,19.257,1.155z"/>
</g>
</svg>
