<?xml version="1.0" encoding="utf-8"?>
<!-- Generator: Adobe Illustrator 16.0.0, SVG Export Plug-In . SVG Version: 6.00 Build 0)  -->
<!DOCTYPE svg PUBLIC "-//W3C//DTD SVG 1.1//EN" "http://www.w3.org/Graphics/SVG/1.1/DTD/svg11.dtd">
<svg version="1.1" id="Max" xmlns="http://www.w3.org/2000/svg" xmlns:xlink="http://www.w3.org/1999/xlink" x="0px" y="0px"
	 width="23px" height="22px" viewBox="0 0 23 22" enable-background="new 0 0 23 22" xml:space="preserve">
<g>
	<path fill="#FFFFFF" d="M13.639,19.428c0,0.695,0.54,1.258,1.209,1.258c0.665,0,1.21-0.563,1.21-1.258v-2.605l4.881,4.826
		c0.472,0.469,1.236,0.469,1.708,0c0.472-0.467,0.472-1.225,0-1.691l-4.856-4.799h2.624c0.713-0.002,1.289-0.537,1.289-1.195
		c0-0.66-0.576-1.195-1.289-1.195H14.93c-0.714,0-1.289,0.535-1.291,1.195c0.002,0.018,0.005,0.031,0.006,0.049
		c-0.001,0.021-0.006,0.045-0.006,0.07V19.428z"/>
	<path fill="#FFFFFF" d="M2.063,21.648l4.88-4.826l0,2.605c0,0.695,0.544,1.258,1.209,1.258c0.67,0,1.209-0.563,1.209-1.258
		l0.002-5.346c0-0.025-0.007-0.049-0.008-0.07c0.001-0.018,0.005-0.031,0.006-0.049c-0.001-0.66-0.577-1.195-1.29-1.195H2.587
		c-0.712,0-1.29,0.535-1.29,1.195c0,0.658,0.578,1.193,1.29,1.195H5.21l-4.858,4.799c-0.47,0.467-0.47,1.225,0,1.691
		C0.826,22.117,1.59,22.117,2.063,21.648z"/>
	<path fill="#FFFFFF" d="M20.938,0.351l-4.881,4.824V2.57c0-0.694-0.545-1.256-1.21-1.258c-0.669,0-1.209,0.563-1.209,1.258v5.348
		c0,0.023,0.005,0.046,0.006,0.069c-0.001,0.016-0.004,0.031-0.006,0.049c0.002,0.661,0.577,1.195,1.291,1.195l5.484,0
		c0.713,0,1.289-0.534,1.289-1.195c0-0.66-0.576-1.194-1.289-1.196H17.79l4.856-4.8c0.472-0.466,0.472-1.222,0-1.689
		C22.175-0.117,21.41-0.117,20.938,0.351z"/>
	<path fill="#FFFFFF" d="M5.21,6.84H2.587c-0.712,0.001-1.29,0.536-1.29,1.196c0,0.662,0.578,1.195,1.29,1.195l5.484,0
		c0.713,0,1.289-0.534,1.29-1.195C9.36,8.019,9.356,8.003,9.355,7.987c0.001-0.023,0.008-0.046,0.008-0.069L9.361,2.57
		c0-0.694-0.539-1.258-1.209-1.258C7.487,1.314,6.943,1.876,6.943,2.57v2.604l-4.88-4.824c-0.473-0.468-1.237-0.468-1.711,0
		c-0.47,0.467-0.47,1.223,0,1.689L5.21,6.84z"/>
</g>
</svg>
