<svg id="icon" xmlns="http://www.w3.org/2000/svg" viewBox="0 0 512 512"><defs><style>.cls-1{fill:#79c7e2;}.cls-2{fill:#f7899e;}.cls-3{fill:#ffca5f;}.cls-4{fill:#376782;}</style></defs><title>diagram graph</title><path class="cls-1" d="M414.56,382.89V334s4.46-83.7-74.33-83.7S265.91,334,265.91,334v48.88c0,54.23-43.86,58-43.86,58H458.41S414.56,437.12,414.56,382.89Z"/><path class="cls-2" d="M328.47,345.19V264.54s5.31-138.1-88.55-138.1-88.55,138.1-88.55,138.1v80.65c0,89.49-52.25,95.69-52.25,95.69H380.71S328.47,434.68,328.47,345.19Z"/><path class="cls-3" d="M328.47,345.19V264.54s.19-5.19-.16-13.52c-66.39,8-62.4,83-62.4,83v48.88c0,54.23-43.86,58-43.86,58H380.71S328.47,434.68,328.47,345.19Z"/><path class="cls-4" d="M474.42,435.41H458.7c-3.25-.36-38.67-5.4-38.67-52.52V334.14c.14-3.2,1.37-41.78-22.92-67.4-13.78-14.53-32.92-21.9-56.88-21.9s-43.09,7.37-56.87,21.9c-24.29,25.62-23.07,64.2-22.92,67.4v48.75c0,47.19-35.53,52.17-38.67,52.52H123.43a64.35,64.35,0,0,0,5.63-4.9c18.43-18,27.78-46.68,27.78-85.32V264.54a1.48,1.48,0,0,0,0-.21c0-.75-2.4-75.14,33.08-112,13.06-13.56,29.88-20.43,50-20.43,55.87,0,74.8,52.25,80.83,96.08a5.47,5.47,0,0,0,10.84-1.49C322.22,158.45,289.66,121,239.92,121c-23.23,0-42.71,8-57.91,23.8-38.35,39.86-36.27,115.33-36.11,119.87v80.55c0,80.76-43,89.56-47.16,90.22H43.05V384.72h25.7a5.47,5.47,0,0,0,0-10.94H43.05V323.1h25.7a5.47,5.47,0,0,0,0-10.94H43.05V261.47h25.7a5.47,5.47,0,0,0,0-10.94H43.05V199.84h25.7a5.47,5.47,0,0,0,0-10.94H43.05V138.22h25.7a5.47,5.47,0,0,0,0-10.94H43.05V76.59h25.7a5.47,5.47,0,0,0,0-10.94H37.58a5.47,5.47,0,0,0-5.47,5.47V440.88a5.47,5.47,0,0,0,5.47,5.47H474.42a5.47,5.47,0,0,0,0-10.94Zm-203-52.52V333.72c0-.36-1.61-36.79,20-59.5C303,262,319.42,255.78,340.23,255.78s37.26,6.2,48.89,18.44c21.58,22.71,20,59.14,20,59.49,0,.1,0,.2,0,.3v48.88c0,28,11.07,43.74,22.67,52.52H381.11c-4.31-.69-47.17-9.63-47.17-90.22V278.45a5.47,5.47,0,1,0-10.94,0v66.74c0,38.64,9.34,67.35,27.77,85.32a65.91,65.91,0,0,0,5.64,4.9H248.7C260.3,426.63,271.37,410.91,271.37,382.89Z"/></svg>