<?xml version="1.0" encoding="utf-8"?>
<!-- Generator: Adobe Illustrator 28.0.0, SVG Export Plug-In . SVG Version: 6.00 Build 0)  -->
<svg version="1.1" id="레이어_1" xmlns="http://www.w3.org/2000/svg" xmlns:xlink="http://www.w3.org/1999/xlink" x="0px"
	 y="0px" viewBox="0 0 18 18" style="enable-background:new 0 0 18 18;" xml:space="preserve">
<style type="text/css">
	.st0{fill:#CCCCCC;}
</style>
<g>
	<path class="st0" d="M6.3,10.5V5.1c0-0.4-0.4-0.8-0.8-0.8S4.6,4.7,4.6,5.1v5.3c-0.8,0.3-1.4,1.1-1.4,2c0,1.2,1,2.2,2.2,2.2
		s2.2-1,2.2-2.2C7.6,11.6,7.1,10.8,6.3,10.5z"/>
	<path class="st0" d="M15.1,0H2.9C1.3,0,0,1.3,0,2.9v12.2C0,16.7,1.3,18,2.9,18h12.2c1.6,0,2.9-1.3,2.9-2.9V2.9
		C18,1.3,16.7,0,15.1,0z M16.3,14.7h-3.6v-2h3.6V14.7z M16.3,11.4h-5.6v-2h5.6V11.4z M16.3,8.4h-3.6v-2h3.6V8.4z M16.3,5.3h-3.6v-2
		h3.6V5.3z M8,16.5H3.2c-0.8,0-1.5-0.7-1.5-1.5V3.2c0-0.8,0.7-1.5,1.5-1.5H8c0.8,0,1.5,0.7,1.5,1.5l0,11.8C9.5,15.8,8.8,16.5,8,16.5
		z"/>
</g>
</svg>
