<?xml version="1.0" encoding="utf-8"?>
<!-- Generator: Adobe Illustrator 28.0.0, SVG Export Plug-In . SVG Version: 6.00 Build 0)  -->
<svg version="1.1" id="레이어_1" xmlns="http://www.w3.org/2000/svg" xmlns:xlink="http://www.w3.org/1999/xlink" x="0px"
	 y="0px" viewBox="0 0 18 18" style="enable-background:new 0 0 18 18;" xml:space="preserve">
<style type="text/css">
	.st0{fill:#CCCCCC;}
</style>
<g id="_x31_뎁스아이콘-클_00000158730447507670728450000015423104755952526756_">
	<g>
		<path class="st0" d="M17.6,5.8l-7.5,3.7c-0.6,0.3-1.5,0.3-2.1,0L0.4,5.8c-0.6-0.3-0.6-0.8,0-1.1L7.9,1c0.6-0.3,1.5-0.3,2.1,0
			l7.5,3.7C18.1,5,18.1,5.5,17.6,5.8z"/>
	</g>
	<g>
		<path class="st0" d="M9,13.8c-0.5,0-0.9-0.1-1.3-0.3L0.3,9.7C0.1,9.6,0,9.3,0.1,9.1c0.1-0.3,0.4-0.4,0.7-0.2l7.4,3.8
			c0.4,0.2,1.2,0.2,1.7,0l7.4-3.8c0.2-0.1,0.6,0,0.7,0.2c0.1,0.3,0,0.6-0.2,0.7l-7.4,3.8C10,13.7,9.5,13.8,9,13.8z"/>
	</g>
	<g>
		<path class="st0" d="M9,17.7c-0.5,0-0.9-0.1-1.3-0.3l-7.4-3.8C0.1,13.6,0,13.2,0.1,13c0.1-0.3,0.4-0.4,0.7-0.2l7.4,3.8
			c0.4,0.2,1.2,0.2,1.7,0l7.4-3.8c0.2-0.1,0.6,0,0.7,0.2c0.1,0.3,0,0.6-0.2,0.7l-7.4,3.8C10,17.6,9.5,17.7,9,17.7z"/>
	</g>
</g>
</svg>
