<?xml version="1.0" encoding="utf-8"?>
<!-- Generator: Adobe Illustrator 28.0.0, SVG Export Plug-In . SVG Version: 6.00 Build 0)  -->
<svg version="1.1" id="레이어_1" xmlns="http://www.w3.org/2000/svg" xmlns:xlink="http://www.w3.org/1999/xlink" x="0px"
	 y="0px" viewBox="0 0 18 18" style="enable-background:new 0 0 18 18;" xml:space="preserve">
<style type="text/css">
	.st0{fill:#CCCCCC;}
</style>
<g id="장애현황_아이콘">
	<path class="st0" d="M18,17.3c0,0.4-0.3,0.7-0.8,0.7H0.8C0.3,18,0,17.7,0,17.3l0.3-2.1c0-0.4,0.3-0.7,0.8-0.7h15.8
		c0.4,0,0.8,0.3,0.8,0.7L18,17.3z"/>
	<path class="st0" d="M15.8,1.4c0-0.8-0.7-1.4-1.5-1.4H3.7C2.9,0,2.2,0.6,2.2,1.4L1.4,12c0,0.8,0.7,1.4,1.5,1.4h4.3V5.7
		C7.3,5.3,7.7,5,8.1,5h1.8c0.4,0,0.8,0.3,0.8,0.7v7.7h4.3c0.8,0,1.5-0.6,1.5-1.4L15.8,1.4L15.8,1.4z"/>
</g>
</svg>
