<?xml version="1.0" encoding="utf-8"?>
<!-- Generator: Adobe Illustrator 28.0.0, SVG Export Plug-In . SVG Version: 6.00 Build 0)  -->
<svg version="1.1" id="레이어_1" xmlns="http://www.w3.org/2000/svg" xmlns:xlink="http://www.w3.org/1999/xlink" x="0px"
	 y="0px" viewBox="0 0 18 18" style="enable-background:new 0 0 18 18;" xml:space="preserve">
<style type="text/css">
	.st0{fill:#CCCCCC;}
</style>
<g>
	<rect x="6" y="6" class="st0" width="6" height="6"/>
	<path class="st0" d="M18,7.7V6.3h-2V4.7C16,3.2,14.8,2,13.3,2h-1.6V0h-1.5v2H7.6V0H6.1v2H4.7C3.2,2,2,3.2,2,4.7v1.6H0v1.5h2v2.7H0
		v1.5h2v1.4C2,14.8,3.2,16,4.7,16h1.4v1.9h1.5V16h2.7v1.9h1.5V16h1.6c1.5,0,2.7-1.2,2.7-2.7v-1.4h2v-1.5h-2V7.7H18z M14,13.3
		c0,0.4-0.3,0.7-0.7,0.7H4.7C4.3,14,4,13.7,4,13.3V4.7C4,4.3,4.3,4,4.7,4h8.6C13.7,4,14,4.3,14,4.7V13.3z"/>
</g>
</svg>
