<?xml version="1.0" encoding="utf-8"?>
<!-- Generator: Adobe Illustrator 28.0.0, SVG Export Plug-In . SVG Version: 6.00 Build 0)  -->
<svg version="1.1" id="레이어_1" xmlns="http://www.w3.org/2000/svg" xmlns:xlink="http://www.w3.org/1999/xlink" x="0px"
	 y="0px" viewBox="0 0 18 18" style="enable-background:new 0 0 18 18;" xml:space="preserve">
<style type="text/css">
	.st0{fill:#CCCCCC;}
</style>
<g>
	<path class="st0" d="M13.1,8.7c-2.6,0-4.6,2.1-4.6,4.6s2.1,4.6,4.6,4.6s4.6-2.1,4.6-4.6S15.6,8.7,13.1,8.7z M16.1,15L16.1,15
		c-0.2,0.3-0.5,0.4-0.8,0.3l-2.6-1.4c0,0,0,0-0.1-0.1c0,0-0.1,0-0.1-0.1c0,0-0.1-0.1-0.1-0.1c0,0,0,0,0-0.1c0,0,0-0.1,0-0.2
		c0,0,0,0,0-0.1v-3.2c0-0.3,0.3-0.6,0.6-0.6s0.6,0.3,0.6,0.6V13l2.3,1.2C16.1,14.3,16.2,14.7,16.1,15z"/>
	<path class="st0" d="M16,0H2C0.9,0,0,0.9,0,2v14c0,1.1,0.9,2,2,2h5.8c-1-0.7-1.5-0.8-1.8-2H2.5c-0.6,0-1-0.5-1-1V4c0-0.6,0.5-1,1-1
		h13c0.6,0,1,0.5,1,1v3.2C17.1,7.5,17.6,8,18,8.5V2C18,0.9,17.1,0,16,0z"/>
	<path class="st0" d="M12.5,6.2L12.5,6.2c0-0.6-0.4-1-1-1h-7c-0.5,0-1,0.4-1,1v0c0,0.5,0.4,1,1,1h7C12.1,7.1,12.5,6.7,12.5,6.2z"/>
	<path class="st0" d="M4.5,9.2c-0.5,0-1,0.5-1,1c0,0.6,0.5,1,1,1h2c0.5,0,1-0.4,1-1c0-0.5-0.5-1-1-1H4.5z"/>
</g>
</svg>
