<?xml version="1.0" encoding="utf-8"?>
<!-- Generator: Adobe Illustrator 28.0.0, SVG Export Plug-In . SVG Version: 6.00 Build 0)  -->
<svg version="1.1" id="레이어_1" xmlns="http://www.w3.org/2000/svg" xmlns:xlink="http://www.w3.org/1999/xlink" x="0px"
	 y="0px" viewBox="0 0 18 18" style="enable-background:new 0 0 18 18;" xml:space="preserve">
<style type="text/css">
	.st0{fill:#CCCCCC;}
</style>
<g id="서버">
	<path class="st0" d="M17,0H1C0.5,0,0,0.5,0,1v6c0,0.5,0.5,1,1,1h16c0.5,0,1-0.5,1-1V1C18,0.5,17.5,0,17,0z M13.3,6h-2V2h2V6z
		 M16.3,6h-2V2h2V6z"/>
	<path class="st0" d="M17,10H1c-0.5,0-1,0.5-1,1v6c0,0.5,0.5,1,1,1h16c0.5,0,1-0.5,1-1v-6C18,10.4,17.5,10,17,10z M13.3,16h-2v-4h2
		V16z M16.3,16h-2v-4h2V16z"/>
</g>
</svg>
