<?xml version="1.0" encoding="UTF-8"?><svg id="_이어_1" xmlns="http://www.w3.org/2000/svg" viewBox="0 0 18 18"><defs><style>.cls-1{fill:#ccc;}</style></defs><path class="cls-1" d="M17.05,7H4.95c-.52,0-.95,.47-.95,1.05v8.9c0,.58,.43,1.05,.95,1.05h12.09c.52,0,.95-.47,.95-1.05V8.05c0-.58-.43-1.05-.95-1.05Zm-8.82,9c0-1.84,1.25-3.34,2.8-3.34-.92,0-1.67-.75-1.67-1.67s.75-1.67,1.67-1.67,1.67,.75,1.67,1.67-.75,1.67-1.67,1.67c1.55,0,2.8,1.49,2.8,3.34h-5.6Z"/><path class="cls-1" d="M2,17.83V6.18c0-.65,.53-1.17,1.17-1.17h14.83v-1.05c0-.52-.43-.95-.95-.95H6V.96C6,.43,5.57,0,5.05,0H.95C.43,0,0,.43,0,.96V17.05c0,.52,.43,.95,.95,.95h1.08c0-.06-.03-.11-.03-.17Z"/></svg>