<?xml version="1.0" encoding="utf-8"?>
<!-- Generator: Adobe Illustrator 28.0.0, SVG Export Plug-In . SVG Version: 6.00 Build 0)  -->
<svg version="1.1" id="레이어_1" xmlns="http://www.w3.org/2000/svg" xmlns:xlink="http://www.w3.org/1999/xlink" x="0px"
	 y="0px" viewBox="0 0 18 18" style="enable-background:new 0 0 18 18;" xml:space="preserve">
<style type="text/css">
	.st0{fill:#CCCCCC;}
  svg:hover path{fill:#FFFFFF}
</style>
<path class="st0" d="M17,13h-1v-1.8c0-1.2-0.9-2.1-2-2.1H9.6V7h1.6c0.8,0,1.4-0.6,1.4-1.4V1.4C12.6,0.6,12,0,11.2,0H7
	C6.2,0,5.6,0.6,5.6,1.4v4.2C5.6,6.4,6.2,7,7,7h1.6v2.1H3.7c-1.1,0-2,0.9-2,2.1V13H1c-0.6,0-1,0.4-1,1v3c0,0.6,0.4,1,1,1h3
	c0.6,0,1-0.4,1-1v-3c0-0.6-0.4-1-1-1H2.7v-1.8c0-0.6,0.4-1.1,1-1.1h4.9V13h-1c-0.6,0-1,0.4-1,1v3c0,0.6,0.4,1,1,1h3c0.6,0,1-0.4,1-1
	v-3c0-0.6-0.4-1-1-1h-1v-2.9H14c0.5,0,1,0.5,1,1.1V13h-1c-0.6,0-1,0.4-1,1v3c0,0.6,0.4,1,1,1h3c0.6,0,1-0.4,1-1v-3
	C18,13.4,17.6,13,17,13z"/>
</svg>
