<?xml version="1.0" encoding="UTF-8"?><svg id="_이어_1" xmlns="http://www.w3.org/2000/svg" viewBox="0 0 32 31.99"><defs><style>.cls-1{fill:#f93;}.cls-2{fill:#73c451;}</style></defs><path class="cls-1" d="M27.79,16.31c-.17,6.37-5.38,11.48-11.79,11.48S4.2,22.5,4.2,15.99,9.19,4.5,15.44,4.21V0h-.03C6.85,.31,0,7.35,0,15.99S7.16,31.99,16,31.99s15.84-7,16-15.7h-4.21Z"/><path class="cls-2" d="M17.6,4.3c2.77,.38,5.23,1.71,7.04,3.67,1.67,1.8,2.78,4.09,3.07,6.65h4.22c-.31-3.63-1.82-6.91-4.15-9.44C25.21,2.36,21.63,.47,17.6,.07V4.3Z"/></svg>