<?xml version="1.0" encoding="UTF-8"?><svg id="_이어_1" xmlns="http://www.w3.org/2000/svg" viewBox="0 0 32.01 32"><defs><style>.cls-1{fill:#fff;}.cls-2{fill:#525e92;}.cls-3{fill:#3e4472;}.cls-4{fill:#191d32;}.cls-5{fill:#7681b5;}.cls-6{fill:#c3cbee;}</style></defs><g><rect class="cls-1" x="1.5" y="1.5" width="29" height="29"/><path class="cls-2" d="M29,3V29H3V3H29m3-3H0V32H32V0h0Z"/></g><rect class="cls-6" x="2.6" y="2.87" width="26.8" height="8.28"/><polygon class="cls-2" points="29.7 10.17 2.3 10.17 2.3 13.17 29.7 13.17 29.7 10.17 29.7 10.17"/><rect class="cls-5" x="5.37" y="17.02" width="21.26" height="2"/><rect class="cls-5" x="5.37" y="22.37" width="21.26" height="2"/><g><path class="cls-1" d="M23.51,30.94c-4.1,0-7.44-3.34-7.44-7.44s3.34-7.44,7.44-7.44,7.44,3.34,7.44,7.44-3.34,7.44-7.44,7.44Z"/><path class="cls-3" d="M23.51,17.13c3.52,0,6.38,2.86,6.38,6.38s-2.86,6.38-6.38,6.38-6.38-2.86-6.38-6.38,2.86-6.38,6.38-6.38m0-2.12c-4.69,0-8.5,3.81-8.5,8.5s3.81,8.5,8.5,8.5,8.5-3.81,8.5-8.5-3.81-8.5-8.5-8.5h0Z"/></g><rect class="cls-4" x="23.19" y="19.02" width="1.22" height="5.18"/><rect class="cls-4" x="19.3" y="24.33" width="5.18" height="1.22" transform="translate(-9.54 14.29) rotate(-30)"/></svg>