<?xml version="1.0" encoding="UTF-8"?><svg id="_이어_1" xmlns="http://www.w3.org/2000/svg" viewBox="0 0 18.12 32"><defs><style>.cls-1{fill:#f33;}.cls-2{fill:#a7b4cd;}</style></defs><path class="cls-2" d="M9.06,2c1.49,0,2.71,1.22,2.71,2.71v11.62l.96,.58c2.12,1.3,3.39,3.55,3.39,6.02,0,3.89-3.17,7.06-7.06,7.06s-7.06-3.17-7.06-7.06c0-2.47,1.27-4.72,3.39-6.02l.96-.58V4.71c0-1.49,1.22-2.71,2.71-2.71m0-2c-2.59,0-4.71,2.12-4.71,4.71V15.21c-2.61,1.59-4.35,4.45-4.35,7.73,0,5,4.06,9.06,9.06,9.06s9.06-4.06,9.06-9.06c0-3.28-1.74-6.14-4.35-7.73V4.71c0-2.59-2.12-4.71-4.71-4.71h0Z"/><circle class="cls-1" cx="9.06" cy="22.74" r="4.86"/><rect class="cls-1" x="7.34" y="3.86" width="3.43" height="17.58" rx="1.57" ry="1.57"/><polygon class="cls-2" points="11.71 7.3 8.91 7.3 8.91 8.24 11.71 8.24 11.71 7.3 11.71 7.3"/><polygon class="cls-2" points="11.71 9.96 8.91 9.96 8.91 10.89 11.71 10.89 11.71 9.96 11.71 9.96"/><polygon class="cls-2" points="11.71 12.65 8.91 12.65 8.91 13.59 11.71 13.59 11.71 12.65 11.71 12.65"/><polygon class="cls-2" points="11.71 15.56 8.91 15.56 8.91 16.5 11.71 16.5 11.71 15.56 11.71 15.56"/></svg>