<?xml version="1.0" encoding="UTF-8"?><svg id="_이어_1" xmlns="http://www.w3.org/2000/svg" viewBox="0 0 32 32"><defs><style>.cls-1{fill:#fff;}.cls-2{fill:#525e92;}.cls-3{fill:none;stroke:#323c60;stroke-miterlimit:10;stroke-width:2.21px;}</style></defs><g><rect class="cls-1" x="21.85" y="13.98" width="9.15" height="6"/><path class="cls-2" d="M30,14.98v4h-7.15v-4h7.15m2-2h-11.15v8h11.15V12.98h0Z"/></g><g><rect class="cls-1" x="1" y="1" width="9.15" height="6"/><path class="cls-2" d="M9.15,2V6H2V2h7.15M11.15,0H0V8H11.15V0h0Z"/></g><g><rect class="cls-1" x="21.85" y="25" width="9.15" height="6"/><path class="cls-2" d="M30,26v4h-7.15v-4h7.15m2-2h-11.15v8h11.15v-8h0Z"/></g><g><polyline class="cls-3" points="5.68 8 5.68 28.67 20.85 28.67"/><line class="cls-3" x1="20.85" y1="17.34" x2="6.25" y2="17.34"/></g></svg>